<svg xmlns="http://www.w3.org/2000/svg" xmlns:xlink="http://www.w3.org/1999/xlink" width="1337" zoomAndPan="magnify" viewBox="0 0 1002.75 479.999983" height="640" preserveAspectRatio="xMidYMid meet" version="1.0"><defs><clipPath id="fb8f29998d"><path d="M 2 0.0585938 L 122 0.0585938 L 122 125 L 2 125 Z M 2 0.0585938 " clip-rule="nonzero"/></clipPath><clipPath id="40cad88c16"><path d="M 794 365 L 1001 365 L 1001 479.9375 L 794 479.9375 Z M 794 365 " clip-rule="nonzero"/></clipPath></defs><path fill="#ffffff" d="M 109.980469 195.167969 L 109.023438 195.5 C 105.96875 197.640625 102.457031 204.828125 98.484375 217.0625 C 96.1875 223.851562 94.3125 231.957031 92.863281 241.382812 C 92.121094 249.398438 92.160156 256.699219 92.96875 263.289062 L 93.722656 268.097656 C 94.320312 271.21875 95.113281 274.15625 96.101562 276.917969 C 97.085938 279.679688 98.265625 282.265625 99.640625 284.671875 C 71.246094 282.726562 60.109375 286.210938 66.234375 295.121094 L 80.941406 319.414062 C 82.585938 321.878906 84.148438 323.386719 85.628906 323.933594 C 86.871094 324.144531 87.75 324.023438 88.273438 323.574219 C 92.515625 320.171875 95.28125 318.078125 96.5625 317.292969 C 98.460938 316.011719 100.109375 315.046875 101.503906 314.394531 C 105.488281 312.605469 108.621094 311.75 110.90625 311.828125 C 112.359375 311.777344 114.273438 312.035156 116.65625 312.601562 C 136.511719 318.800781 150.496094 322.636719 158.609375 324.109375 C 171.941406 326.542969 181.367188 326.863281 186.882812 325.066406 C 189.558594 324.21875 189.921875 322.898438 187.972656 321.101562 C 167.554688 310.667969 155.390625 302.871094 151.476562 297.707031 C 151.328125 296.816406 151.976562 296.046875 153.417969 295.398438 C 162.796875 292.089844 167.796875 290.089844 168.421875 289.394531 C 169.820312 288.414062 169.929688 287.351562 168.753906 286.207031 C 163.332031 284.257812 160.121094 283.328125 159.121094 283.417969 C 157.03125 283.097656 154.980469 282.976562 152.960938 283.050781 C 148.925781 283.207031 145.027344 284.15625 141.273438 285.902344 C 140.015625 285.636719 138.53125 283.875 136.808594 280.617188 C 132.882812 273.839844 128.382812 263.128906 123.3125 248.488281 C 119.703125 237.671875 115.957031 220.96875 112.074219 198.375 C 111.316406 196.292969 110.621094 195.226562 109.980469 195.167969 " fill-opacity="1" fill-rule="nonzero"/><g clip-path="url(#fb8f29998d)"><path fill="#ffffff" d="M 28.882812 -0.0273438 L 28.820312 -0.0234375 C 27.53125 1.546875 26.449219 3.445312 25.578125 5.671875 C 24.707031 7.898438 24.046875 10.449219 23.597656 13.328125 L 23.078125 17.894531 C 22.597656 24.308594 22.960938 32.03125 24.164062 41.058594 C 27.523438 59 30.335938 70.84375 32.597656 76.59375 C 35.324219 84.9375 38.433594 92.378906 41.925781 98.910156 C 41.230469 99.601562 38.511719 100.664062 33.765625 102.105469 C 31.347656 102.976562 22.257812 105.363281 6.5 109.273438 C 3.046875 110.6875 1.789062 112.066406 2.71875 113.410156 C 2.996094 114.050781 4.179688 114.882812 6.269531 115.902344 C 7.023438 116.421875 11.347656 118.128906 19.246094 121.035156 C 22.570312 122.320312 27.398438 123.429688 33.722656 124.367188 C 37.957031 124.644531 40.941406 124.429688 42.675781 123.722656 C 45.878906 122.054688 48.277344 120.347656 49.878906 118.597656 C 50.960938 118.039062 51.9375 117.738281 52.808594 117.699219 C 63.113281 120.675781 74.15625 121.9375 85.933594 121.484375 C 91.933594 120.871094 96.046875 120.226562 98.269531 119.550781 C 107.921875 115.175781 115.171875 112.507812 120.019531 111.542969 C 121.003906 111.148438 121.585938 110.660156 121.761719 110.082031 C 121.960938 109.394531 121.042969 108.46875 119.003906 107.292969 L 103.339844 100.671875 C 102.160156 99.828125 101.503906 98.777344 101.363281 97.515625 C 101.261719 96.800781 101.476562 95.75 102.007812 94.363281 C 106.648438 85.53125 109.351562 79.757812 110.121094 77.046875 C 112.992188 67.472656 114.269531 61.730469 113.953125 59.816406 C 113.710938 59.050781 112.902344 59.097656 111.527344 59.960938 C 100.890625 69.136719 93.871094 74.765625 90.464844 76.84375 C 87.773438 78.707031 85.652344 79.082031 84.105469 77.960938 C 83.222656 77.476562 81.589844 75.859375 79.210938 73.113281 L 44.78125 31.152344 C 42.113281 27.839844 37.589844 18.140625 31.203125 2.046875 C 30.539062 0.8125 29.765625 0.121094 28.882812 -0.0273438 " fill-opacity="1" fill-rule="nonzero"/></g><path fill="#ffffff" d="M 310.671875 98.148438 L 310.621094 98.152344 C 308.132812 98.007812 307.859375 104.113281 309.796875 116.46875 C 311.566406 128.882812 314.207031 140.417969 317.726562 151.082031 C 321.117188 161.085938 324.917969 170.324219 329.128906 178.796875 C 331.234375 183.03125 333.441406 187.074219 335.75 190.929688 C 336.777344 193.09375 340.476562 198.441406 346.84375 206.972656 C 333.523438 209.183594 320.390625 210.660156 307.453125 211.398438 C 306.386719 211.53125 305.402344 212.011719 304.492188 212.832031 C 302.539062 216.453125 305.132812 222.429688 312.265625 230.757812 C 319.382812 236.230469 324.839844 238.96875 328.636719 238.96875 L 400.101562 222.292969 L 402.53125 221.472656 C 411.21875 217.511719 419.925781 211.59375 428.648438 203.71875 L 442.757812 198.765625 C 442.480469 198.09375 439.320312 196.597656 433.285156 194.285156 C 431.023438 193.371094 425.703125 192.421875 417.328125 191.433594 C 416.410156 191.070312 415.90625 190.523438 415.816406 189.789062 C 425.691406 149.765625 427.730469 124.820312 421.933594 114.960938 C 420.886719 113.535156 418.863281 114.753906 415.859375 118.621094 L 391.265625 167.011719 C 389.523438 169.832031 387.609375 171.261719 385.523438 171.304688 C 379.4375 169.210938 367.148438 159.484375 348.65625 142.128906 C 339.402344 132.792969 328.542969 119.5625 316.078125 102.429688 C 313.558594 99.574219 311.757812 98.148438 310.671875 98.148438 " fill-opacity="1" fill-rule="nonzero"/><path fill="#ffffff" d="M 497.980469 318.703125 L 497.917969 318.707031 C 496.652344 325.566406 497.074219 332.53125 499.183594 339.601562 C 500.59375 346.234375 504.183594 357.492188 509.960938 373.367188 C 514.351562 384.699219 523.601562 400.445312 537.703125 420.617188 C 537.683594 421.539062 537.175781 422.316406 536.183594 422.945312 C 534.109375 423.941406 532.109375 424.492188 530.179688 424.601562 C 527.265625 425.148438 517.945312 424.71875 502.214844 423.3125 C 499.160156 423.679688 497.742188 424.550781 497.957031 425.921875 C 508.757812 438.265625 515.628906 445.15625 518.570312 446.589844 C 523.085938 449.855469 526.8125 451.320312 529.75 450.984375 C 530.679688 450.953125 531.960938 450.679688 533.589844 450.167969 C 544.078125 444.515625 549.957031 441.683594 551.230469 441.664062 C 565.441406 441.226562 574.3125 440.679688 577.847656 440.027344 L 604.296875 430.136719 C 606.023438 429.230469 606.074219 428.085938 604.445312 426.707031 C 604.132812 426.246094 600.429688 425.085938 593.332031 423.226562 C 591.988281 422.390625 591.621094 421.808594 592.234375 421.484375 C 613.921875 414.429688 626.507812 409.535156 629.984375 406.808594 C 646.59375 396.113281 656.46875 386.976562 659.601562 379.398438 C 659.464844 379.074219 659.21875 378.917969 658.867188 378.933594 C 631.953125 392.566406 615.757812 400.324219 610.273438 402.207031 C 601.761719 405.558594 590.113281 408.257812 575.335938 410.296875 L 572.984375 404.605469 L 567.691406 385.882812 C 566.765625 383.636719 565.757812 381.914062 564.675781 380.714844 C 560.355469 378.222656 539.160156 358.164062 501.097656 320.542969 C 499.707031 319.304688 498.667969 318.691406 497.980469 318.703125 " fill-opacity="1" fill-rule="nonzero"/><g clip-path="url(#40cad88c16)"><path fill="#ffffff" d="M 794.867188 365.832031 L 794.800781 365.835938 C 792.964844 371.128906 798.132812 387.042969 810.304688 413.570312 C 818.78125 433.4375 827.300781 446.835938 835.871094 453.761719 C 831.683594 454.265625 821.464844 453.976562 805.214844 452.894531 C 803.234375 452.917969 801.792969 453.148438 800.890625 453.585938 C 799.136719 454.6875 798.535156 456 799.082031 457.523438 C 800.6875 461.175781 803.066406 465.34375 806.230469 470.027344 C 808.839844 473.648438 811.230469 475.664062 813.40625 476.074219 L 815.640625 476.296875 C 822.125 474.894531 826.773438 474.285156 829.585938 474.46875 C 846.507812 477.125 857.359375 478.675781 862.144531 479.125 C 866.285156 479.503906 870.816406 479.496094 875.738281 479.097656 C 884.222656 478.074219 889.480469 477.027344 891.515625 475.96875 C 892.847656 475.480469 894.457031 474.691406 896.347656 473.605469 C 903.195312 467.960938 908.179688 464.511719 911.300781 463.253906 C 914.925781 461.53125 922.191406 459.273438 933.097656 456.480469 C 933.820312 455.71875 933.496094 454.953125 932.132812 454.183594 C 930.644531 453.300781 927.113281 452.15625 921.539062 450.761719 C 920.851562 450.265625 920.753906 449.90625 921.25 449.679688 C 935.929688 447.492188 945.433594 445.558594 949.761719 443.875 C 956.257812 441.878906 961.914062 439.511719 966.730469 436.761719 C 975.339844 431.238281 981.425781 426.777344 984.992188 423.378906 C 992.6875 416.0625 997.910156 409.546875 1000.65625 403.839844 C 999.699219 403.441406 997.527344 403.601562 994.136719 404.316406 C 987.371094 405.953125 981.234375 407.714844 975.730469 409.609375 C 959.753906 415.613281 934.886719 426.121094 901.132812 441.136719 C 891.621094 444.609375 884.839844 446.140625 880.789062 445.734375 C 879.035156 445.792969 875.707031 444.054688 870.808594 440.523438 C 850.367188 424.421875 837.945312 414.285156 833.542969 410.117188 C 828.414062 405.855469 816.953125 392.242188 799.160156 369.273438 C 796.542969 366.464844 795.109375 365.316406 794.867188 365.832031 " fill-opacity="1" fill-rule="nonzero"/></g></svg>