<svg xmlns="http://www.w3.org/2000/svg" xmlns:xlink="http://www.w3.org/1999/xlink" width="550" zoomAndPan="magnify" viewBox="0 0 412.5 361.499994" height="482" preserveAspectRatio="xMidYMid meet" version="1.0"><defs><clipPath id="bd6ded24b3"><path d="M 52 83 L 403 83 L 403 361 L 52 361 Z M 52 83 " clip-rule="nonzero"/></clipPath></defs><path fill="#bbe5e1" d="M 121.941406 173.4375 C 103.257812 171.386719 103.257812 171.386719 103.257812 171.386719 L 107.808594 180.503906 L 82.980469 181.148438 L 51.816406 246.953125 C 51.816406 246.953125 22.835938 237.007812 20.785156 215.128906 C 18.734375 193.253906 36.507812 157.714844 36.507812 157.714844 C 36.507812 157.714844 32.179688 134.699219 30.128906 121.9375 C 28.078125 109.179688 36.960938 95.28125 49.265625 94.820312 C 61.570312 94.371094 61.570312 94.371094 61.570312 94.371094 L 85.257812 139.714844 L 87.996094 138.113281 L 88.449219 96.644531 C 88.449219 96.644531 107.132812 96.195312 116.011719 110.542969 C 124.894531 124.902344 130.371094 133.324219 135.375 144.492188 C 140.398438 155.664062 140.625 175.488281 121.941406 173.4375 Z M 158.527344 308.261719 C 158.527344 308.261719 150.199219 306.042969 146.039062 311.59375 L 135.214844 301.320312 C 135.214844 301.320312 130.21875 308.539062 136.605469 316.585938 C 142.984375 324.628906 155.75 336.015625 159.082031 339.625 C 162.414062 343.234375 165.746094 341.84375 164.632812 335.1875 C 163.527344 328.523438 158.527344 308.261719 158.527344 308.261719 Z M 238.179688 352.667969 C 232.90625 350.175781 210.152344 338.789062 210.152344 338.789062 C 210.152344 338.789062 205.992188 341.28125 206.269531 346.832031 L 186.285156 346.832031 C 186.285156 346.832031 187.117188 360.714844 196.273438 360.714844 C 205.429688 360.714844 233.179688 360.714844 238.179688 360.714844 C 243.167969 360.722656 243.453125 355.171875 238.179688 352.667969 Z M 238.179688 352.667969 " fill-opacity="1" fill-rule="nonzero"/><path fill="#00bfa8" d="M 65.328125 245.988281 C 92.960938 245.988281 140.324219 245.988281 140.324219 245.988281 L 137.8125 255.324219 C 137.8125 255.324219 133.148438 264.660156 117 264.660156 C 100.855469 264.660156 57.074219 264.660156 42.359375 264.660156 C 27.640625 264.660156 23.339844 253.894531 18.316406 243.488281 C 13.292969 233.082031 3.601562 183.191406 1.808594 173.144531 C 0.0195312 163.097656 7.550781 158.785156 14.726562 158.785156 C 21.898438 158.785156 36.507812 158.785156 36.507812 158.785156 C 36.507812 158.785156 26.203125 183.191406 21.898438 202.933594 C 17.597656 222.664062 37.695312 245.988281 65.328125 245.988281 Z M 396.480469 157.335938 C 396.480469 157.335938 388.585938 189.636719 383.5625 208.296875 C 378.539062 226.960938 359.863281 240.238281 344.789062 240.238281 C 329.722656 240.238281 324.347656 239.878906 324.347656 239.878906 L 319.820312 264.894531 C 319.820312 264.894531 340.828125 264.894531 363.078125 264.894531 C 385.328125 264.894531 396.839844 246.703125 401.863281 224.449219 C 406.882812 202.195312 409.753906 182.8125 410.835938 171.335938 C 411.90625 159.855469 401.863281 157.335938 396.480469 157.335938 Z M 396.480469 157.335938 " fill-opacity="1" fill-rule="nonzero"/><g clip-path="url(#bd6ded24b3)"><path fill="#ffffff" d="M 178.578125 235.464844 L 198.28125 313.167969 L 166.449219 313.167969 L 158.109375 296.867188 L 159.808594 286.695312 L 133.867188 278.046875 L 140.3125 245.988281 C 140.3125 245.988281 76.527344 245.988281 65.320312 245.988281 C 54.109375 245.988281 52.714844 244.015625 52.714844 244.015625 L 82.980469 181.140625 L 107.808594 180.496094 C 107.808594 180.496094 130.820312 180.496094 152.417969 180.496094 C 174.023438 180.496094 188.796875 195.289062 183.875 214.234375 C 178.953125 233.1875 178.578125 235.464844 178.578125 235.464844 Z M 383.34375 87.035156 C 372.863281 84.289062 357.394531 83.292969 357.394531 83.292969 C 357.394531 83.292969 344.671875 92.277344 334.191406 87.035156 C 334.191406 87.035156 317.222656 90.03125 312.730469 99.511719 C 308.234375 108.996094 294.765625 138.691406 294.765625 138.691406 L 259.832031 98.011719 L 241.617188 114.238281 C 241.617188 114.238281 272.558594 154.171875 280.542969 164.652344 C 288.527344 175.136719 306.996094 173.386719 306.996094 173.386719 L 305.246094 183.867188 L 309.742188 204.832031 C 309.742188 204.832031 350.414062 199.589844 365.390625 198.09375 C 380.367188 196.59375 388.101562 189.601562 390.59375 181.121094 C 393.089844 172.632812 402.070312 135.945312 402.824219 117.726562 C 403.5625 99.519531 393.824219 89.78125 383.34375 87.035156 Z M 267.402344 350.046875 C 267.402344 350.046875 262.429688 350.734375 262.429688 354.703125 C 262.429688 358.671875 263.808594 361.257812 267.257812 361.257812 C 270.707031 361.257812 305.890625 361.257812 311.347656 361.257812 C 316.804688 361.257812 314.722656 350.105469 314.722656 350.105469 Z M 267.402344 350.046875 " fill-opacity="1" fill-rule="nonzero"/></g><path fill="#f79a91" d="M 102.367188 55.925781 C 103.859375 64.261719 102.367188 79.164062 96.410156 83.929688 C 90.449219 88.691406 85.535156 89.144531 85.535156 89.144531 L 85.746094 91.859375 L 81.617188 98.1875 L 79.140625 107.128906 L 77.347656 99.015625 L 67.0625 92.125 C 67.0625 92.125 66.464844 87.363281 62.890625 86.164062 C 59.316406 84.96875 48.058594 67.601562 50.738281 55.984375 C 53.417969 44.363281 62.296875 31.644531 80.019531 34.472656 C 97.75 37.304688 100.878906 47.585938 102.367188 55.925781 Z M 103.75 134.355469 L 113.820312 144.308594 L 109.191406 133.316406 C 109.191406 133.316406 106.636719 132.621094 103.75 134.355469 Z M 68.339844 139.328125 C 61.980469 140.484375 58.546875 142.175781 57.15625 143.679688 C 55.769531 145.1875 53.191406 153.335938 53.074219 156.113281 C 52.957031 158.894531 52.613281 164.90625 55.617188 164.90625 C 58.621094 164.90625 66.609375 160.15625 69.613281 158.308594 C 72.617188 156.457031 73.890625 147.660156 73.890625 147.660156 L 81.761719 142.332031 C 81.769531 142.34375 74.710938 138.171875 68.339844 139.328125 Z M 204.871094 334 C 203.53125 330.414062 198.28125 313.167969 198.28125 313.167969 L 176.550781 312.96875 C 176.550781 312.96875 183.542969 330.121094 184.878906 336.09375 C 186.21875 342.0625 186.277344 346.851562 186.277344 346.851562 C 186.277344 346.851562 200.996094 346.851562 206.261719 346.851562 C 206.753906 342.6875 210.144531 338.804688 210.144531 338.804688 C 210.144531 338.804688 206.21875 337.574219 204.871094 334 Z M 159.816406 286.695312 L 139.996094 280.148438 C 139.996094 280.148438 139.402344 284.476562 138.203125 290.738281 C 137.007812 297.003906 135.226562 301.332031 135.226562 301.332031 L 146.046875 311.601562 C 151.648438 306.503906 158.539062 308.269531 158.539062 308.269531 C 158.539062 308.269531 157.601562 301.78125 158.117188 296.875 C 158.636719 291.960938 159.816406 286.695312 159.816406 286.695312 Z M 281.796875 308.085938 L 274.539062 309.710938 C 274.539062 309.710938 277.078125 315.628906 278.601562 322.5625 C 280.125 329.496094 278.769531 334.902344 277.921875 337.273438 L 279.445312 338.117188 C 279.445312 338.117188 282.148438 335.582031 282.996094 332.199219 C 282.996094 332.199219 296.355469 328.984375 301.417969 338.964844 L 310.886719 338.964844 L 311.222656 323.074219 L 283.011719 323.074219 Z M 294.035156 200.34375 C 306.308594 199.082031 307.882812 197.179688 307.882812 197.179688 L 305.246094 183.867188 C 305.246094 183.867188 299.367188 184.503906 292.472656 184.882812 C 285.574219 185.257812 276.976562 187.125 274.742188 188.992188 C 272.5 190.859375 266.714844 196.082031 267.273438 200.5625 C 271.511719 200.09375 271.8125 199.625 271.8125 199.625 C 271.8125 199.625 281.765625 201.609375 294.035156 200.34375 Z M 234.863281 87.3125 C 229.261719 86.867188 226.457031 86.355469 223.585938 85.980469 C 220.714844 85.613281 219.828125 88.113281 221.226562 89.152344 C 222.625 90.183594 226.382812 92.101562 226.382812 92.101562 L 217.6875 94.605469 C 217.6875 94.605469 211.492188 91.65625 209.648438 90.617188 C 207.808594 89.589844 204.417969 91.722656 207.214844 94.234375 C 210.019531 96.738281 214.65625 99.175781 217.980469 100.941406 C 221.292969 102.707031 228.226562 102.859375 234.5625 103.078125 C 240.898438 103.292969 243.117188 103.226562 243.117188 103.226562 L 247.980469 108.535156 L 259.832031 98.011719 C 259.832031 98.011719 254.25 92.902344 250.265625 90.617188 C 246.289062 88.339844 240.464844 87.753906 234.863281 87.3125 Z M 359.707031 35.3125 C 357.179688 14.933594 313.441406 11.945312 308.835938 37.210938 C 304.234375 62.480469 308.835938 68.171875 315.046875 74.855469 C 321.257812 81.527344 332.769531 79.917969 332.769531 79.917969 L 334.183594 87.042969 C 346.648438 92.492188 357.386719 83.300781 357.386719 83.300781 L 352.113281 73.070312 C 352.113281 73.070312 362.234375 55.679688 359.707031 35.3125 Z M 359.707031 35.3125 " fill-opacity="1" fill-rule="nonzero"/><path fill="#28407e" d="M 133.105469 351.722656 C 133.644531 354.101562 131.835938 356.359375 129.398438 356.359375 C 127.683594 356.359375 126.175781 355.214844 125.730469 353.554688 L 101.28125 264.578125 L 113.402344 264.402344 Z M 365.960938 264.402344 L 353.839844 264.578125 L 378.289062 353.554688 C 378.742188 355.214844 380.238281 356.359375 381.957031 356.359375 C 384.390625 356.359375 386.199219 354.101562 385.664062 351.722656 Z M 24.828125 351.722656 C 24.292969 354.101562 26.101562 356.359375 28.539062 356.359375 C 30.253906 356.359375 31.761719 355.214844 32.203125 353.554688 L 56.65625 264.578125 L 44.535156 264.402344 Z M 390.585938 181.121094 C 390.585938 181.121094 386.59375 194.5 371 196.9375 C 355.402344 199.375 309.742188 204.832031 309.742188 204.832031 L 307.882812 197.179688 C 307.882812 197.179688 290.824219 202.789062 271.8125 199.617188 C 271.8125 199.617188 252.074219 202.539062 247.203125 215.707031 C 242.328125 228.867188 245.980469 241.058594 248.667969 252.511719 C 251.34375 263.964844 267.433594 311.988281 267.433594 311.988281 L 281.816406 308.085938 L 283.039062 323.199219 L 284.300781 323.199219 C 284.402344 325.140625 284.453125 329.042969 283.4375 332.125 C 283.296875 332.148438 283.15625 332.171875 283.011719 332.199219 C 283.011719 332.199219 281.992188 334.820312 280.308594 337.171875 L 277.941406 337.265625 C 277.941406 337.265625 273.34375 345.25 267.039062 350.097656 L 314.738281 350.097656 C 314.738281 350.097656 314.195312 338.957031 310.902344 338.957031 C 307.621094 338.957031 301.4375 338.957031 301.4375 338.957031 C 301.4375 338.957031 298.707031 329.886719 284.703125 331.90625 C 285.589844 328.765625 285.566406 325.125 285.457031 323.191406 L 315.199219 323.191406 C 315.199219 323.191406 322.261719 266.402344 324.949219 240.808594 C 324.949219 240.808594 328.367188 240.808594 343.230469 240.808594 C 358.082031 240.816406 383.855469 234.535156 390.585938 181.121094 Z M 329.117188 52.71875 C 329.921875 52.71875 330.574219 52.0625 330.574219 51.261719 C 330.574219 50.457031 329.921875 49.804688 329.117188 49.804688 C 328.316406 49.804688 327.664062 50.457031 327.664062 51.261719 C 327.664062 52.0625 328.316406 52.71875 329.117188 52.71875 Z M 311.40625 54.089844 C 312.210938 54.089844 312.863281 53.4375 312.863281 52.632812 C 312.863281 51.828125 312.210938 51.175781 311.40625 51.175781 C 310.601562 51.175781 309.949219 51.828125 309.949219 52.632812 C 309.949219 53.4375 310.601562 54.089844 311.40625 54.089844 Z M 268.605469 196.71875 C 268.296875 196.796875 268.113281 197.113281 268.1875 197.421875 C 268.253906 197.683594 268.488281 197.859375 268.75 197.859375 C 268.796875 197.859375 268.839844 197.851562 268.890625 197.839844 C 268.914062 197.832031 271.71875 197.148438 274.355469 197.148438 C 274.675781 197.148438 274.933594 196.886719 274.933594 196.570312 C 274.933594 196.25 274.675781 195.992188 274.355469 195.992188 C 271.570312 195.984375 268.730469 196.6875 268.605469 196.71875 Z M 276.917969 193.914062 C 277.21875 193.949219 277.519531 193.722656 277.554688 193.402344 C 277.589844 193.085938 277.363281 192.800781 277.042969 192.769531 C 273.753906 192.40625 270.640625 193.226562 270.507812 193.261719 C 270.195312 193.34375 270.011719 193.664062 270.097656 193.964844 C 270.164062 194.226562 270.398438 194.390625 270.65625 194.390625 C 270.707031 194.390625 270.757812 194.382812 270.808594 194.375 C 270.832031 194.367188 273.835938 193.570312 276.917969 193.914062 Z M 280.59375 190.925781 C 280.617188 190.925781 280.652344 190.933594 280.675781 190.933594 C 280.960938 190.933594 281.203125 190.726562 281.246094 190.441406 C 281.296875 190.121094 281.078125 189.828125 280.761719 189.789062 C 277.488281 189.300781 274.507812 189.769531 274.382812 189.789062 C 274.0625 189.835938 273.855469 190.128906 273.90625 190.449219 C 273.953125 190.765625 274.230469 190.984375 274.566406 190.925781 C 274.589844 190.925781 277.503906 190.472656 280.59375 190.925781 Z M 227.5625 94.078125 C 221.027344 94.402344 217.777344 94.042969 217.753906 94.035156 C 217.417969 93.992188 217.148438 94.226562 217.117188 94.546875 C 217.082031 94.863281 217.308594 95.148438 217.628906 95.179688 C 217.761719 95.199219 220.984375 95.558594 227.628906 95.222656 C 234.460938 94.878906 238.847656 94.828125 242.070312 97.015625 C 242.171875 97.082031 242.28125 97.117188 242.398438 97.117188 C 242.582031 97.117188 242.765625 97.023438 242.875 96.863281 C 243.050781 96.597656 242.984375 96.246094 242.722656 96.058594 C 239.191406 93.683594 234.644531 93.722656 227.5625 94.078125 Z M 316.050781 47.292969 C 316.101562 47.324219 316.152344 47.394531 316.203125 47.433594 C 317.699219 46.664062 319.214844 47.117188 320.019531 47.46875 C 320.070312 47.410156 320.113281 47.335938 320.171875 47.285156 C 326.65625 41.5 334.734375 45.089844 337.019531 46.628906 L 341.523438 45.191406 C 341.566406 44.804688 341.625 44.414062 341.71875 43.984375 C 341.71875 43.984375 332.265625 43.800781 334.453125 32.902344 C 334.453125 32.902344 323.726562 40.445312 315.917969 32.714844 C 315.917969 32.714844 314.195312 35.804688 309.554688 35.445312 L 307.648438 44.804688 C 307.648438 44.804688 302.464844 41.714844 304.917969 34.902344 C 304.917969 34.902344 300.464844 23.910156 306.097656 19.003906 C 311.734375 14.097656 319 17.09375 319 17.09375 C 319 17.09375 321.996094 11.367188 329.628906 12.003906 C 337.265625 12.640625 340.351562 17.1875 340.351562 17.1875 C 340.351562 17.1875 347.351562 11.550781 354.523438 16.003906 C 361.699219 20.460938 360.519531 27.820312 360.519531 27.820312 C 360.519531 27.820312 367.609375 28.640625 369.425781 38.175781 C 371.242188 47.71875 364.242188 52.800781 364.242188 52.800781 C 364.242188 52.800781 365.515625 62.707031 361.339844 68.246094 C 357.160156 73.789062 352.113281 73.054688 352.113281 73.054688 C 352.113281 73.054688 347.441406 68.609375 350.078125 60.429688 C 350.078125 60.429688 357.890625 58.160156 357.4375 49.527344 C 356.984375 40.894531 349.988281 43.53125 349.988281 43.53125 L 345.988281 52.984375 C 345.988281 52.984375 341.515625 51.652344 341.457031 46.421875 L 337.832031 47.578125 C 338.417969 48.847656 338.585938 51.195312 337.875 53.320312 C 337.179688 55.398438 335.113281 58.871094 329.019531 58.871094 C 322.714844 58.871094 320.488281 55.496094 319.71875 53.480469 C 319.023438 51.664062 319.058594 49.753906 319.484375 48.472656 C 318.890625 48.222656 317.851562 47.945312 316.832031 48.421875 C 317.28125 49.6875 317.375 51.679688 317 53.597656 L 317.542969 53.730469 C 317.542969 53.730469 316.738281 57.027344 316.292969 58.9375 C 316.234375 59.207031 316.1875 59.558594 316.292969 59.714844 C 316.503906 60.007812 317.457031 60.09375 318.554688 60.195312 C 318.855469 60.21875 319.183594 60.253906 319.535156 60.285156 C 319.851562 60.320312 320.078125 60.605469 320.046875 60.921875 C 320.011719 61.214844 319.761719 61.441406 319.476562 61.441406 C 319.460938 61.441406 319.433594 61.441406 319.417969 61.441406 C 319.074219 61.40625 318.757812 61.375 318.453125 61.347656 C 316.90625 61.207031 315.882812 61.113281 315.355469 60.394531 C 314.957031 59.84375 315.054688 59.15625 315.164062 58.679688 C 315.265625 58.261719 315.375 57.773438 315.492188 57.273438 C 314.394531 58.789062 312.847656 59.683594 310.921875 59.851562 C 310.703125 59.867188 310.484375 59.875 310.277344 59.875 C 307.730469 59.875 305.621094 58.496094 304.28125 55.933594 C 302.910156 53.296875 302.601562 49.628906 303.648438 48.371094 C 307.339844 43.992188 314.386719 46.253906 316.050781 47.292969 Z M 320.941406 48.144531 C 320.914062 48.171875 320.882812 48.222656 320.855469 48.253906 C 320.855469 48.355469 320.839844 48.464844 320.773438 48.554688 C 320.730469 48.625 320.664062 48.671875 320.605469 48.714844 C 320.261719 49.601562 320.113281 51.292969 320.789062 53.085938 C 321.453125 54.820312 323.402344 57.730469 329.011719 57.730469 C 334.117188 57.730469 336.050781 55.144531 336.777344 52.96875 C 337.640625 50.382812 336.960938 48.011719 336.585938 47.734375 C 334.953125 46.503906 327.027344 42.722656 320.941406 48.144531 Z M 304.535156 49.140625 C 303.988281 49.789062 303.949219 52.816406 305.3125 55.421875 C 306.175781 57.070312 307.816406 58.988281 310.828125 58.71875 C 314.183594 58.425781 315.375 55.53125 315.785156 53.832031 C 316.453125 51.035156 315.867188 48.53125 315.457031 48.273438 C 314.636719 47.761719 312.335938 46.898438 309.90625 46.898438 C 307.964844 46.898438 305.949219 47.441406 304.535156 49.140625 Z M 324.488281 68.492188 C 324.1875 68.597656 324.03125 68.925781 324.136719 69.226562 C 324.222656 69.460938 324.449219 69.613281 324.683594 69.613281 C 324.75 69.613281 324.808594 69.605469 324.875 69.578125 C 325 69.539062 328.03125 68.449219 329.445312 65.9375 C 330.449219 64.144531 329.832031 63.28125 329.511719 62.988281 C 328.765625 62.3125 327.410156 62.503906 325.972656 63.492188 C 323.785156 65 321.140625 65.226562 321.109375 65.226562 C 320.789062 65.25 320.554688 65.527344 320.582031 65.84375 C 320.605469 66.164062 320.90625 66.398438 321.199219 66.371094 C 321.316406 66.363281 324.171875 66.121094 326.625 64.4375 C 327.769531 63.652344 328.523438 63.652344 328.734375 63.84375 C 328.917969 64.011719 328.902344 64.554688 328.441406 65.367188 C 327.242188 67.496094 324.523438 68.472656 324.488281 68.492188 Z M 323.445312 43.324219 C 323.46875 43.296875 326.398438 40.863281 331.957031 43.132812 C 332.25 43.25 332.585938 43.113281 332.710938 42.8125 C 332.828125 42.519531 332.683594 42.183594 332.390625 42.058594 C 326.1875 39.53125 322.832031 42.328125 322.691406 42.453125 C 322.449219 42.664062 322.421875 43.023438 322.632812 43.265625 C 322.75 43.398438 322.90625 43.464844 323.066406 43.464844 C 323.199219 43.464844 323.335938 43.414062 323.445312 43.324219 Z M 309.273438 43.324219 C 309.390625 43.222656 312.269531 40.878906 317.785156 43.121094 C 318.078125 43.238281 318.414062 43.105469 318.539062 42.804688 C 318.65625 42.511719 318.511719 42.175781 318.21875 42.050781 C 312.015625 39.523438 308.660156 42.320312 308.519531 42.445312 C 308.277344 42.652344 308.25 43.015625 308.460938 43.257812 C 308.578125 43.390625 308.734375 43.457031 308.902344 43.457031 C 309.027344 43.464844 309.164062 43.414062 309.273438 43.324219 Z M 307.621094 169.007812 C 307.90625 169.007812 308.160156 168.796875 308.191406 168.503906 L 313.859375 126.148438 C 314.753906 118.664062 317.074219 113.582031 318.957031 111.332031 C 319.15625 111.089844 319.125 110.71875 318.882812 110.519531 C 318.636719 110.316406 318.269531 110.351562 318.070312 110.59375 C 317.105469 111.75 313.875 116.28125 312.710938 126.007812 L 307.046875 168.355469 C 307.003906 168.671875 307.222656 168.957031 307.539062 169 C 307.574219 169 307.597656 169.007812 307.621094 169.007812 Z M 368.832031 109.019531 C 368.753906 109.289062 367.0625 115.683594 367.441406 122.199219 C 367.617188 125.28125 366.570312 127.949219 365.457031 130.773438 C 364.308594 133.695312 363.121094 136.714844 363.3125 140.324219 C 363.488281 143.523438 362.375 147.457031 361.1875 151.625 C 359.933594 156.046875 358.515625 161.046875 358.441406 165.992188 L 305.070312 183.332031 C 304.769531 183.433594 304.601562 183.757812 304.699219 184.0625 C 304.777344 184.304688 305.003906 184.460938 305.253906 184.460938 C 305.3125 184.460938 305.371094 184.453125 305.429688 184.4375 L 359.195312 166.972656 C 359.429688 166.898438 359.597656 166.671875 359.597656 166.421875 C 359.597656 161.496094 360.96875 156.640625 362.300781 151.953125 C 363.507812 147.691406 364.652344 143.664062 364.46875 140.273438 C 364.285156 136.925781 365.433594 134.019531 366.535156 131.207031 C 367.640625 128.394531 368.789062 125.488281 368.597656 122.148438 C 368.226562 115.828125 369.933594 109.398438 369.953125 109.339844 C 370.035156 109.027344 369.851562 108.710938 369.542969 108.628906 C 369.230469 108.535156 368.914062 108.710938 368.832031 109.019531 Z M 352.480469 53.261719 C 352.238281 53.472656 352.207031 53.832031 352.414062 54.074219 C 352.53125 54.207031 352.691406 54.28125 352.859375 54.28125 C 352.984375 54.28125 353.117188 54.242188 353.226562 54.148438 C 353.328125 54.066406 355.671875 52.074219 355.128906 49.226562 C 354.675781 46.855469 352.515625 46.136719 351.425781 46.085938 C 351.074219 46.0625 350.839844 46.320312 350.824219 46.628906 C 350.808594 46.949219 351.050781 47.21875 351.367188 47.234375 C 351.460938 47.242188 353.59375 47.375 353.988281 49.433594 C 354.398438 51.613281 352.5 53.246094 352.480469 53.261719 Z M 106.304688 197.179688 C 101.707031 196.820312 97.738281 196.519531 95.539062 196.007812 C 87.863281 194.25 86.261719 188.304688 86.203125 188.054688 C 86.128906 187.746094 85.8125 187.558594 85.5 187.636719 C 85.191406 187.710938 85.007812 188.027344 85.082031 188.332031 C 85.148438 188.605469 86.890625 195.210938 95.277344 197.128906 C 97.5625 197.648438 101.382812 197.949219 106.210938 198.328125 C 118.238281 199.265625 136.347656 200.664062 146.390625 207.300781 L 140.097656 240.90625 C 140.039062 241.21875 140.246094 241.519531 140.558594 241.578125 C 140.589844 241.585938 140.632812 241.585938 140.664062 241.585938 C 140.941406 241.585938 141.175781 241.394531 141.234375 241.117188 L 147.605469 207.132812 C 147.648438 206.910156 147.554688 206.683594 147.363281 206.546875 C 137.132812 199.574219 118.582031 198.132812 106.304688 197.179688 Z M 177.949219 239.980469 C 177.640625 239.894531 177.320312 240.078125 177.246094 240.390625 L 164.742188 288.011719 L 160.472656 286.527344 C 160.167969 286.417969 159.84375 286.585938 159.734375 286.886719 C 159.625 287.191406 159.792969 287.515625 160.085938 287.625 L 164.941406 289.308594 C 165 289.332031 165.066406 289.339844 165.132812 289.339844 C 165.226562 289.339844 165.316406 289.316406 165.402344 289.273438 C 165.542969 289.199219 165.644531 289.066406 165.6875 288.914062 L 178.351562 240.691406 C 178.445312 240.371094 178.257812 240.0625 177.949219 239.980469 Z M 141.335938 294.902344 C 141.210938 295 138.304688 297.480469 138.632812 301.632812 C 138.65625 301.933594 138.90625 302.160156 139.210938 302.160156 C 139.226562 302.160156 139.242188 302.160156 139.257812 302.160156 C 139.578125 302.132812 139.8125 301.859375 139.785156 301.539062 C 139.503906 298 142.054688 295.8125 142.082031 295.789062 C 142.324219 295.578125 142.355469 295.21875 142.15625 294.976562 C 141.945312 294.734375 141.585938 294.699219 141.335938 294.902344 Z M 192.773438 338.261719 C 192.890625 337.96875 192.75 337.632812 192.457031 337.507812 C 192.15625 337.382812 191.828125 337.53125 191.703125 337.824219 C 191.644531 337.976562 190.203125 341.625 192.546875 344.964844 C 192.65625 345.125 192.839844 345.210938 193.015625 345.210938 C 193.132812 345.210938 193.242188 345.175781 193.351562 345.101562 C 193.613281 344.917969 193.679688 344.554688 193.496094 344.296875 C 191.519531 341.492188 192.757812 338.292969 192.773438 338.261719 Z M 91.261719 170.4375 C 91.3125 170.464844 91.363281 170.480469 91.421875 170.488281 L 103.1875 171.953125 C 103.214844 171.953125 103.238281 171.964844 103.265625 171.964844 C 103.550781 171.964844 103.800781 171.746094 103.832031 171.460938 C 103.875 171.140625 103.648438 170.859375 103.332031 170.816406 L 92.347656 169.441406 C 102.21875 160.34375 116.140625 146.878906 116.296875 146.730469 C 116.414062 146.621094 116.472656 146.460938 116.472656 146.300781 C 116.472656 146.144531 116.398438 145.992188 116.28125 145.882812 L 115.203125 144.902344 L 120.265625 144.972656 C 120.265625 144.972656 120.273438 144.972656 120.273438 144.972656 C 120.59375 144.972656 120.84375 144.71875 120.851562 144.402344 C 120.851562 144.082031 120.601562 143.824219 120.28125 143.816406 L 114.207031 143.738281 L 104.453125 120.128906 C 104.328125 119.835938 103.992188 119.695312 103.699219 119.820312 C 103.40625 119.9375 103.265625 120.28125 103.390625 120.574219 L 112.378906 142.359375 L 99.28125 130.488281 C 99.085938 130.3125 98.792969 130.285156 98.570312 130.4375 L 88.003906 137.519531 L 88.457031 96.664062 L 85.746094 91.875 L 81.617188 98.203125 L 79.140625 107.144531 L 77.347656 99.03125 L 66.625 90.234375 L 61.570312 94.394531 L 85.117188 139.460938 L 73.574219 147.207031 C 73.304688 147.382812 73.238281 147.742188 73.414062 148.011719 C 73.589844 148.277344 73.949219 148.34375 74.21875 148.167969 L 98.835938 131.660156 L 115.050781 146.328125 C 112.1875 149.097656 96.167969 164.535156 87.511719 172.289062 C 76.066406 182.546875 57.441406 182.964844 49.65625 176.476562 C 40.316406 168.6875 37.863281 161.984375 37.847656 161.917969 C 37.738281 161.613281 37.410156 161.457031 37.109375 161.566406 C 36.808594 161.671875 36.648438 162 36.757812 162.300781 C 36.859375 162.585938 39.3125 169.351562 48.921875 177.363281 C 52.773438 180.570312 58.085938 181.96875 63.722656 181.96875 C 72.636719 181.96875 82.335938 178.476562 88.28125 173.152344 C 89.203125 172.324219 90.207031 171.410156 91.261719 170.4375 Z M 60.539062 141.453125 C 60.566406 141.453125 60.589844 141.453125 60.613281 141.445312 C 60.933594 141.40625 61.152344 141.109375 61.109375 140.792969 L 59.285156 127.355469 C 59.242188 127.039062 58.957031 126.820312 58.632812 126.863281 C 58.3125 126.902344 58.09375 127.195312 58.136719 127.515625 L 59.960938 140.953125 C 60.003906 141.246094 60.253906 141.453125 60.539062 141.453125 Z M 79.15625 60.664062 C 79.15625 61.464844 79.808594 62.121094 80.613281 62.121094 C 81.417969 62.121094 82.070312 61.464844 82.070312 60.664062 C 82.070312 59.859375 81.417969 59.207031 80.613281 59.207031 C 79.808594 59.207031 79.15625 59.859375 79.15625 60.664062 Z M 95.914062 60.664062 C 95.914062 61.464844 96.566406 62.121094 97.371094 62.121094 C 98.175781 62.121094 98.828125 61.464844 98.828125 60.664062 C 98.828125 59.859375 98.175781 59.207031 97.371094 59.207031 C 96.566406 59.207031 95.914062 59.859375 95.914062 60.664062 Z M 94.761719 69.078125 C 94.996094 68.707031 95.019531 68.273438 94.835938 67.835938 C 94.132812 66.195312 91.988281 62.246094 91.898438 62.078125 C 91.746094 61.800781 91.394531 61.691406 91.109375 61.84375 C 90.832031 61.992188 90.726562 62.34375 90.875 62.628906 C 90.902344 62.671875 93.085938 66.707031 93.765625 68.296875 C 93.804688 68.40625 93.789062 68.433594 93.773438 68.457031 C 93.496094 68.882812 91.878906 69.210938 90.550781 69.246094 C 90.230469 69.253906 89.980469 69.519531 89.988281 69.839844 C 89.996094 70.148438 90.257812 70.398438 90.566406 70.398438 C 90.574219 70.398438 90.574219 70.398438 90.582031 70.398438 C 91.160156 70.382812 94.015625 70.25 94.761719 69.078125 Z M 89.511719 75.714844 C 90.230469 75.714844 91.070312 75.589844 92.039062 75.265625 C 92.339844 75.164062 92.507812 74.835938 92.40625 74.535156 C 92.308594 74.234375 91.980469 74.066406 91.679688 74.167969 C 88.039062 75.382812 86.824219 73.363281 86.773438 73.269531 C 86.625 72.996094 86.273438 72.894531 85.996094 73.046875 C 85.71875 73.195312 85.609375 73.546875 85.761719 73.832031 C 85.8125 73.925781 86.824219 75.714844 89.511719 75.714844 Z M 86.976562 55.707031 C 87.074219 55.78125 87.199219 55.816406 87.316406 55.816406 C 87.492188 55.816406 87.667969 55.730469 87.785156 55.582031 C 87.972656 55.320312 87.921875 54.960938 87.660156 54.777344 C 82.152344 50.742188 75.875 54.71875 75.816406 54.761719 C 75.546875 54.9375 75.472656 55.289062 75.648438 55.554688 C 75.824219 55.824219 76.175781 55.898438 76.445312 55.730469 C 76.664062 55.582031 82.121094 52.148438 86.976562 55.707031 Z M 92.683594 54.777344 C 92.425781 54.96875 92.375 55.328125 92.566406 55.582031 C 92.757812 55.839844 93.121094 55.890625 93.371094 55.699219 C 93.539062 55.574219 97.582031 52.652344 100.796875 55.65625 C 100.902344 55.757812 101.046875 55.816406 101.1875 55.816406 C 101.339844 55.816406 101.5 55.757812 101.605469 55.632812 C 101.824219 55.398438 101.816406 55.035156 101.582031 54.820312 C 97.664062 51.160156 92.734375 54.742188 92.683594 54.777344 Z M 43.246094 54.902344 C 42.953125 66.15625 49.625 78.5625 62.902344 86.164062 L 59.578125 70.339844 C 59.578125 70.339844 53.625 71.957031 52.21875 65.894531 C 50.8125 59.832031 58.488281 58.753906 58.488281 58.753906 L 59.570312 70.339844 C 59.570312 70.339844 64.054688 67.378906 67.296875 61.652344 L 74.511719 61.652344 C 74.660156 63.734375 75.75 68.179688 82.296875 68.179688 C 87.929688 68.179688 89.511719 62.5625 89.804688 61.214844 C 90.273438 60.980469 91.496094 60.519531 92.742188 61.207031 C 93.027344 62.4375 94.492188 67.476562 99.078125 67.476562 C 100.652344 67.476562 101.882812 67.035156 102.746094 66.171875 C 104.21875 64.691406 104.210938 62.335938 104.203125 61.074219 L 104.203125 60.839844 C 104.203125 60.519531 103.941406 60.261719 103.625 60.261719 C 103.304688 60.261719 103.046875 60.519531 103.046875 60.839844 L 103.046875 61.074219 C 103.054688 62.246094 103.0625 64.210938 101.925781 65.351562 C 101.289062 65.996094 100.328125 66.3125 99.078125 66.3125 C 94.84375 66.3125 93.855469 60.957031 93.824219 60.730469 C 93.796875 60.570312 93.707031 60.429688 93.5625 60.34375 C 91.292969 58.878906 89.066406 60.285156 88.976562 60.34375 C 88.839844 60.4375 88.742188 60.578125 88.714844 60.738281 C 88.675781 60.996094 87.660156 67.007812 82.289062 67.007812 C 76.503906 67.007812 75.632812 63.285156 75.632812 61.054688 C 75.632812 60.738281 75.371094 60.476562 75.054688 60.476562 L 67.898438 60.476562 C 70.109375 56.074219 71.464844 50.238281 69.804688 43.03125 C 69.804688 43.03125 84.003906 50.289062 99.613281 47.132812 C 99.613281 47.132812 97.09375 34.355469 84.632812 31.519531 C 73.640625 29.015625 60.078125 28.605469 50.863281 37.511719 C 49.890625 35.90625 47.355469 33.125 41.664062 33.828125 C 33.769531 34.800781 30.640625 46.152344 34.957031 51.5625 C 37.511719 54.734375 40.875 55.121094 43.246094 54.902344 Z M 81.96875 90.9375 C 82.453125 91.136719 83.976562 91.429688 85.734375 91.714844 L 85.542969 89.144531 C 81.625 89.144531 80.597656 90.367188 81.96875 90.9375 Z M 67.832031 146.042969 C 67.511719 145.984375 67.21875 146.191406 67.160156 146.503906 C 67.09375 146.878906 65.488281 155.679688 67.628906 158.894531 C 67.738281 159.0625 67.921875 159.152344 68.105469 159.152344 C 68.214844 159.152344 68.324219 159.121094 68.425781 159.054688 C 68.691406 158.878906 68.761719 158.515625 68.585938 158.25 C 67.019531 155.90625 67.839844 149.125 68.292969 146.703125 C 68.351562 146.402344 68.140625 146.101562 67.832031 146.042969 Z M 62.742188 148.203125 C 62.421875 148.144531 62.128906 148.351562 62.070312 148.664062 C 62.003906 149.039062 60.398438 157.839844 62.539062 161.054688 C 62.648438 161.222656 62.832031 161.3125 63.019531 161.3125 C 63.125 161.3125 63.234375 161.28125 63.335938 161.214844 C 63.605469 161.039062 63.671875 160.675781 63.496094 160.410156 C 61.929688 158.066406 62.75 151.285156 63.203125 148.871094 C 63.261719 148.5625 63.050781 148.261719 62.742188 148.203125 Z M 58.027344 150.882812 C 57.710938 150.824219 57.417969 151.03125 57.359375 151.34375 C 57.292969 151.71875 55.683594 160.519531 57.828125 163.734375 C 57.9375 163.902344 58.121094 163.992188 58.304688 163.992188 C 58.414062 163.992188 58.523438 163.960938 58.621094 163.890625 C 58.890625 163.714844 58.957031 163.355469 58.78125 163.089844 C 57.214844 160.746094 58.035156 153.960938 58.488281 151.550781 C 58.546875 151.242188 58.339844 150.941406 58.027344 150.882812 Z M 162.144531 62.511719 C 155.398438 62.511719 154.125 58.101562 153.976562 55.429688 C 153.925781 54.535156 153.699219 51.613281 153.390625 47.558594 C 152.445312 35.136719 150.851562 14.339844 151.003906 9.867188 C 151.203125 3.789062 155.433594 0.609375 159.492188 0.609375 C 161.15625 0.609375 180.46875 0.433594 200.902344 0.25 C 224.398438 0.03125 248.683594 -0.1875 251.09375 -0.1875 C 255.605469 -0.1875 257.808594 2.527344 257.808594 8.109375 C 257.808594 11.894531 257.933594 28.195312 257.964844 33.101562 C 257.992188 35.773438 259.480469 38.199219 261.859375 39.421875 L 284.199219 50.925781 C 284.445312 51.050781 284.5625 51.328125 284.492188 51.585938 C 284.425781 51.847656 284.234375 52.046875 283.90625 52.015625 L 262.453125 51.058594 C 260.042969 50.949219 257.789062 52.03125 256.382812 53.941406 C 255.179688 55.582031 253.421875 56.527344 251.152344 56.761719 C 245.945312 57.296875 169.050781 62.285156 162.679688 62.503906 C 162.503906 62.511719 162.320312 62.511719 162.144531 62.511719 Z M 162.648438 61.347656 C 169.007812 61.140625 245.835938 56.148438 251.035156 55.613281 C 252.96875 55.414062 254.449219 54.625 255.457031 53.261719 C 257.085938 51.042969 259.714844 49.789062 262.503906 49.914062 L 281.328125 50.75 L 261.332031 40.453125 C 258.570312 39.027344 256.835938 36.214844 256.8125 33.109375 C 256.769531 28.203125 256.652344 11.894531 256.652344 8.109375 C 256.652344 3.171875 254.9375 0.96875 251.09375 0.96875 C 248.683594 0.96875 224.398438 1.1875 200.917969 1.402344 C 180.476562 1.589844 161.175781 1.765625 159.5 1.765625 C 155.992188 1.765625 152.34375 4.558594 152.167969 9.910156 C 152.015625 14.3125 153.664062 35.890625 154.554688 47.476562 C 154.863281 51.535156 155.089844 54.46875 155.140625 55.371094 C 155.363281 59.492188 157.894531 61.507812 162.648438 61.347656 Z M 166.03125 15.015625 L 241.410156 14.421875 C 241.726562 14.421875 241.988281 14.164062 241.976562 13.84375 C 241.976562 13.527344 241.71875 13.277344 241.402344 13.277344 C 241.402344 13.277344 241.402344 13.277344 241.390625 13.277344 L 166.019531 13.871094 C 165.703125 13.871094 165.445312 14.128906 165.453125 14.449219 C 165.453125 14.757812 165.710938 15.015625 166.03125 15.015625 Z M 166.222656 27.316406 C 165.902344 27.316406 165.644531 27.574219 165.652344 27.894531 C 165.652344 28.210938 165.914062 28.464844 166.230469 28.464844 C 166.230469 28.464844 166.230469 28.464844 166.238281 28.464844 L 241.609375 27.867188 C 241.929688 27.867188 242.1875 27.609375 242.179688 27.292969 C 242.179688 26.972656 241.894531 26.730469 241.601562 26.722656 Z M 241.996094 41.164062 L 166.617188 41.757812 C 166.296875 41.757812 166.039062 42.019531 166.046875 42.335938 C 166.046875 42.652344 166.304688 42.90625 166.625 42.90625 C 166.625 42.90625 166.625 42.90625 166.632812 42.90625 L 242.003906 42.3125 C 242.320312 42.3125 242.582031 42.050781 242.574219 41.734375 C 242.574219 41.421875 242.3125 41.164062 241.996094 41.164062 Z M 340.292969 80.863281 C 340.292969 79.535156 339.082031 78.679688 332.769531 79.917969 L 333.882812 85.511719 C 336.769531 83.84375 340.292969 81.652344 340.292969 80.863281 Z M 340.292969 80.863281 " fill-opacity="1" fill-rule="nonzero"/></svg>