<svg xmlns="http://www.w3.org/2000/svg" xmlns:xlink="http://www.w3.org/1999/xlink" width="550" zoomAndPan="magnify" viewBox="0 0 412.5 299.999988" height="400" preserveAspectRatio="xMidYMid meet" version="1.0"><defs><clipPath id="4fb5893927"><path d="M 9.648438 256.429688 L 65 256.429688 L 65 299.773438 L 9.648438 299.773438 Z M 9.648438 256.429688 " clip-rule="nonzero"/></clipPath><clipPath id="88f7d18cc8"><path d="M 64.511719 256.429688 L 120 256.429688 L 120 299.773438 L 64.511719 299.773438 Z M 64.511719 256.429688 " clip-rule="nonzero"/></clipPath><clipPath id="30cd4260d9"><path d="M 1.742188 164 L 124 164 L 124 299.773438 L 1.742188 299.773438 Z M 1.742188 164 " clip-rule="nonzero"/></clipPath><clipPath id="3c445076d3"><path d="M 131.726562 246.042969 L 187 246.042969 L 187 299.773438 L 131.726562 299.773438 Z M 131.726562 246.042969 " clip-rule="nonzero"/></clipPath><clipPath id="dffb69da09"><path d="M 390.214844 204.488281 L 411.804688 204.488281 L 411.804688 273.742188 L 390.214844 273.742188 Z M 390.214844 204.488281 " clip-rule="nonzero"/></clipPath><clipPath id="2cbf760248"><path d="M 370 184.703125 L 411.804688 184.703125 L 411.804688 293.53125 L 370 293.53125 Z M 370 184.703125 " clip-rule="nonzero"/></clipPath><clipPath id="93195ddbeb"><path d="M 376 184.703125 L 411.804688 184.703125 L 411.804688 281 L 376 281 Z M 376 184.703125 " clip-rule="nonzero"/></clipPath><clipPath id="9f332b208b"><path d="M 363.527344 150.570312 L 411.804688 150.570312 L 411.804688 293.53125 L 363.527344 293.53125 Z M 363.527344 150.570312 " clip-rule="nonzero"/></clipPath><clipPath id="a0bf12e263"><path d="M 371 150.570312 L 411.804688 150.570312 L 411.804688 293.53125 L 371 293.53125 Z M 371 150.570312 " clip-rule="nonzero"/></clipPath><clipPath id="db27c4d605"><path d="M 367 272.753906 L 403.5625 272.753906 L 403.5625 299.773438 L 367 299.773438 Z M 367 272.753906 " clip-rule="nonzero"/></clipPath><clipPath id="5f31a93d67"><path d="M 322.503906 256 L 376.871094 256 L 376.871094 299.773438 L 322.503906 299.773438 Z M 322.503906 256 " clip-rule="nonzero"/></clipPath><clipPath id="1ee462dafc"><path d="M 270.609375 256 L 324.976562 256 L 324.976562 299.773438 L 270.609375 299.773438 Z M 270.609375 256 " clip-rule="nonzero"/></clipPath><clipPath id="597c3e6dde"><path d="M 266.65625 168.378906 L 400.597656 168.378906 L 400.597656 299.773438 L 266.65625 299.773438 Z M 266.65625 168.378906 " clip-rule="nonzero"/></clipPath><clipPath id="6e641cf238"><path d="M 199 247.03125 L 253.804688 247.03125 L 253.804688 299.773438 L 199 299.773438 Z M 199 247.03125 " clip-rule="nonzero"/></clipPath><clipPath id="df2cc522fa"><path d="M 248 0.179688 L 361 0.179688 L 361 106 L 248 106 Z M 248 0.179688 " clip-rule="nonzero"/></clipPath><clipPath id="62600e2c24"><path d="M 248 0.179688 L 363 0.179688 L 363 100 L 248 100 Z M 248 0.179688 " clip-rule="nonzero"/></clipPath><clipPath id="701494d2f8"><path d="M 16 0.179688 L 128 0.179688 L 128 100 L 16 100 Z M 16 0.179688 " clip-rule="nonzero"/></clipPath></defs><path fill="#e6e8f6" d="M 27.65625 141.824219 L 72.320312 141.53125 C 75.914062 141.507812 78.382812 144.628906 79.480469 148.074219 L 91.265625 185.128906 C 92.363281 188.574219 88.945312 191.597656 85.351562 191.671875 L 28.59375 192.855469 C 25 192.929688 22.566406 189.742188 21.433594 186.3125 L 12.300781 158.703125 C 9.320312 149.691406 13.144531 141.917969 27.65625 141.824219 " fill-opacity="1" fill-rule="evenodd"/><path stroke-linecap="butt" transform="matrix(0.0494243, 0, 0, -0.0494678, 1.742127, 299.773613)" fill="none" stroke-linejoin="miter" d="M 1853.689845 2511.81814 C 2056.256739 2521.372969 2614.086293 2503.368828 2774.685563 2494.919516 C 2935.126764 2486.470204 3112.560505 2334.38259 3256.24627 2004.938393 C 3399.852999 1675.415229 3611.034717 796.686794 3433.600976 653.048492 C 3256.24627 509.41019 2292.571611 589.797101 2056.493845 653.048492 C 1820.416078 716.378849 1718.539868 1075.514086 1642.429091 1371.240002 C 1566.476385 1666.965918 1268.593191 2484.180204 1853.689845 2511.81814 Z M 1853.689845 2511.81814 " stroke="#8fb2ee" stroke-width="12.482" stroke-opacity="1" stroke-miterlimit="22.926001"/><path stroke-linecap="butt" transform="matrix(0.0494243, 0, 0, -0.0494678, 1.742127, 299.773613)" fill="none" stroke-linejoin="miter" d="M 472.9471 3326.426564 L 1751.813634 3334.875875 C 1854.796336 3335.5076 1925.532727 3246.197583 1956.909651 3147.6486 L 2294.389418 2087.457373 C 2325.766342 1988.90839 2227.92092 1902.362167 2125.017254 1900.230098 L 499.73999 1866.43285 C 396.836324 1864.300781 327.206423 1955.50597 294.723008 2053.660126 L 33.195948 2843.473372 C -52.161932 3101.374799 57.38068 3323.66277 472.9471 3326.426564 Z M 472.9471 3326.426564 " stroke="#8fb2ee" stroke-width="12.482" stroke-opacity="1" stroke-miterlimit="22.926001"/><path stroke-linecap="butt" transform="matrix(0.0494243, 0, 0, -0.0494678, 1.742127, 299.773613)" fill="none" stroke-linejoin="miter" d="M 585.25594 1820.632842 L 2038.869023 1829.792844 C 2124.305938 1830.345602 2194.251979 1759.908348 2194.251979 1674.388678 C 2194.251979 1588.947972 2124.305938 1519.53727 2038.869023 1518.984511 L 585.25594 1509.903475 C 499.73999 1509.350717 429.872985 1579.787971 429.872985 1665.228676 C 429.872985 1750.748347 499.73999 1820.080083 585.25594 1820.632842 Z M 585.25594 1820.632842 " stroke="#8fb2ee" stroke-width="12.482" stroke-opacity="1" stroke-miterlimit="22.926001"/><path fill="#c3714e" d="M 118.824219 151.410156 C 118.964844 150.742188 120.324219 146.375 120.445312 145.933594 C 120.5625 145.5 122.300781 144.242188 122.625 144.054688 C 122.949219 143.867188 124.359375 142.835938 124.71875 142.230469 C 125.074219 141.621094 125.972656 141.039062 126.367188 140.871094 C 126.800781 141.011719 126.652344 142.730469 126 143.414062 C 125.347656 144.101562 124.746094 144.464844 124.445312 144.855469 C 124.144531 145.246094 124.078125 145.929688 124.078125 145.929688 L 125.089844 146.242188 C 125.089844 146.242188 127.417969 145.574219 127.730469 145.578125 C 128.042969 145.582031 129.632812 144.757812 129.632812 144.757812 C 129.632812 144.757812 130.277344 143.207031 130.664062 143.234375 C 130.855469 143.167969 131.03125 143.097656 131.222656 143.402344 C 131.339844 142.511719 132.085938 141.695312 132.65625 141.628906 C 132.804688 141.695312 132.996094 142.070312 132.996094 142.070312 C 133.082031 141.886719 133.679688 141.429688 133.898438 141.488281 C 134.117188 141.546875 134.175781 141.769531 134.175781 141.769531 C 134.566406 141.140625 134.976562 140.828125 135.453125 140.957031 C 135.378906 141.585938 135.234375 142.070312 134.871094 142.992188 C 134.507812 143.910156 133.40625 145.84375 133.40625 145.84375 L 132.707031 147.574219 C 132.707031 147.574219 130.351562 149.371094 130.039062 149.523438 C 129.722656 149.671875 129.28125 151.039062 128.765625 151.214844 C 128.25 151.386719 123.265625 153.222656 122.847656 153.621094 C 122.429688 154.015625 122.167969 154.691406 122.054688 154.972656 C 121.941406 155.253906 118.816406 151.289062 118.824219 151.410156 " fill-opacity="1" fill-rule="evenodd"/><path stroke-linecap="butt" transform="matrix(0.0494243, 0, 0, -0.0494678, 1.742127, 299.773613)" fill="none" stroke-linejoin="miter" d="M 2684.585579 3191.158608 L 2649.177865 3089.766865 " stroke="#2f2e6b" stroke-width="12.482" stroke-opacity="1" stroke-miterlimit="22.926001"/><path stroke-linecap="butt" transform="matrix(0.0494243, 0, 0, -0.0494678, 1.742127, 299.773613)" fill="none" stroke-linejoin="miter" d="M 2655.658742 3184.683434 L 2633.05471 3112.272042 L 2600.887435 3055.969618 " stroke="#2f2e6b" stroke-width="12.482" stroke-opacity="1" stroke-miterlimit="22.926001"/><path stroke-linecap="butt" transform="matrix(0.0494243, 0, 0, -0.0494678, 1.742127, 299.773613)" fill="none" stroke-linejoin="miter" d="M 2476.802369 3035.596511 C 2498.141839 3047.599272 2504.780785 3048.941686 2512.763328 3048.941686 C 2520.74587 3048.941686 2548.724286 3047.599272 2548.724286 3047.599272 L 2572.750949 3075.55307 C 2572.750949 3075.55307 2586.028841 3122.221699 2587.372437 3128.854804 C 2588.716034 3135.566874 2598.042172 3159.49343 2607.368311 3164.863086 " stroke="#2f2e6b" stroke-width="12.482" stroke-opacity="1" stroke-miterlimit="22.926001"/><path fill="#8fb2ee" d="M 87.503906 139.828125 C 89.78125 141.8125 91.589844 145.925781 97.605469 158.738281 C 103.625 171.546875 105.765625 176.085938 106.640625 177.839844 C 107.703125 179.972656 105.003906 182.890625 100.75 185.628906 C 99.8125 186.234375 96.21875 180.179688 94.632812 177.910156 C 90.074219 171.390625 85.71875 162.714844 84.785156 160.628906 C 83.003906 156.648438 78.171875 141.882812 87.503906 139.828125 " fill-opacity="1" fill-rule="evenodd"/><path fill="#ffffff" d="M 118.46875 150.828125 L 124.441406 154.472656 L 122.644531 157.589844 L 116.675781 153.949219 L 118.46875 150.828125 " fill-opacity="1" fill-rule="evenodd"/><path fill="#8fb2ee" d="M 101.195312 175.214844 C 101.714844 171.734375 100.730469 171.503906 104.351562 166.933594 C 109.761719 160.105469 116.34375 153.203125 116.683594 152.796875 C 119.554688 154.339844 121.496094 155.542969 123.820312 157.238281 C 121.394531 164.132812 106.320312 183.070312 100.75 185.628906 C 98.9375 186.460938 100.375 180.707031 101.195312 175.214844 " fill-opacity="1" fill-rule="evenodd"/><path fill="#8fb2ee" d="M 88.882812 190.59375 L 55.976562 196.664062 C 56.53125 189.140625 56.242188 188.417969 57.25 176.773438 C 57.941406 168.84375 53.773438 151.277344 52.035156 138.527344 C 57.128906 135.6875 55.699219 136.472656 62.457031 135.660156 C 65.019531 135.355469 67.679688 135.199219 70.429688 135.199219 C 74.066406 135.199219 75.3125 135.097656 78.507812 136.082031 C 83.964844 137.683594 82.398438 135.910156 87.503906 139.828125 C 89.222656 153.613281 85.945312 164.441406 85.03125 174.394531 C 84.199219 183.480469 88.386719 188.082031 88.882812 190.59375 " fill-opacity="1" fill-rule="evenodd"/><path fill="#8fb2ee" d="M 52.035156 138.527344 C 49.539062 138.929688 47.601562 144.519531 41.125 157.105469 C 34.652344 169.6875 31.78125 179.957031 30.847656 181.679688 C 38.328125 179.203125 40.339844 178.246094 43.84375 176.257812 C 48.632812 169.910156 52.992188 161.460938 54 159.410156 C 55.921875 155.496094 61.285156 140.917969 52.035156 138.527344 " fill-opacity="1" fill-rule="evenodd"/><path fill="#ffffff" d="M 59.304688 135.972656 L 72.929688 171.132812 L 82.625 136.929688 L 76.070312 135.355469 L 65.828125 135.28125 L 59.304688 135.972656 " fill-opacity="1" fill-rule="evenodd"/><path stroke-linecap="butt" transform="matrix(0.0494243, 0, 0, -0.0494678, 1.742127, 299.773613)" fill="none" stroke-linejoin="miter" d="M 1447.291493 2625.212643 L 1688.50654 2966.264774 L 1654.837598 3042.86134 L 1735.137233 3099.163764 L 1663.215316 3302.026214 " stroke="#2f2e6b" stroke-width="12.482" stroke-opacity="1" stroke-miterlimit="22.926001"/><path stroke-linecap="butt" transform="matrix(0.0494243, 0, 0, -0.0494678, 1.742127, 299.773613)" fill="none" stroke-linejoin="miter" d="M 1439.704126 2600.338501 L 1161.26356 2966.659602 L 1181.97075 3043.335133 L 1092.028835 3099.637557 L 1143.322598 3302.026214 " stroke="#2f2e6b" stroke-width="12.482" stroke-opacity="1" stroke-miterlimit="22.926001"/><path fill="#c3714e" d="M 107.414062 189.640625 C 113.8125 214.386719 120.015625 252.34375 126.699219 273.695312 L 133.007812 270.507812 C 130.3125 249.003906 130.011719 215.167969 126.183594 190.171875 L 107.414062 189.640625 " fill-opacity="1" fill-rule="evenodd"/><path fill="#c3714e" d="M 127.078125 276.480469 L 129.441406 279.113281 L 142.222656 277.480469 L 141.613281 275.351562 L 133.292969 272.726562 L 131.761719 260.832031 L 124.308594 261.847656 L 127.078125 276.480469 " fill-opacity="1" fill-rule="evenodd"/><path fill="#2f2e6b" d="M 127.726562 280.8125 L 147.695312 277.804688 C 147.695312 277.804688 147.90625 276.777344 146.710938 276.507812 L 141.613281 275.351562 C 141.207031 276.703125 130.910156 278.257812 129.175781 277.453125 L 127.078125 276.480469 L 127.726562 280.8125 " fill-opacity="1" fill-rule="evenodd"/><path fill="#c3714e" d="M 110.496094 210.042969 L 102.972656 277.800781 L 110.515625 280.050781 L 129.867188 208.210938 L 110.496094 210.042969 " fill-opacity="1" fill-rule="evenodd"/><path fill="#c3714e" d="M 101.5 286.445312 L 102.175781 289.917969 L 113.980469 295.09375 L 114.550781 292.953125 L 108.757812 286.421875 L 112.269531 273.675781 L 103.703125 273.511719 L 101.5 286.445312 " fill-opacity="1" fill-rule="evenodd"/><path fill="#2f2e6b" d="M 99.832031 290.496094 L 112.886719 295.871094 L 114.550781 292.953125 C 113.507812 293.90625 103.875 289.941406 102.800781 288.359375 L 101.5 286.445312 L 99.832031 290.496094 " fill-opacity="1" fill-rule="evenodd"/><path fill="#2f2e6b" d="M 112.886719 295.871094 L 120.070312 295.878906 C 120.070312 295.878906 120.503906 294.886719 119.152344 294.445312 L 114.550781 292.953125 L 112.886719 295.871094 " fill-opacity="1" fill-rule="evenodd"/><path fill="#f66f82" d="M 95.621094 220.75 C 111.613281 221.285156 113.902344 219.722656 129.648438 221.914062 C 129.863281 218.386719 129.363281 203.726562 129.355469 200.21875 C 129.34375 192.539062 128.621094 189.722656 124.457031 189.109375 C 100.691406 185.636719 71.828125 193.628906 55.976562 196.664062 C 56.765625 217.402344 72.15625 221.699219 95.621094 220.75 " fill-opacity="1" fill-rule="evenodd"/><path fill="#c3714e" d="M 68.164062 172.945312 L 71.710938 169.039062 L 72.371094 171.5 Z M 68.164062 172.945312 " fill-opacity="1" fill-rule="evenodd"/><path fill="#2f2e6b" d="M 75.890625 159.949219 L 90.859375 160.023438 C 91.878906 160.027344 92.511719 160.863281 92.269531 161.878906 L 87.277344 182.828125 C 87.039062 183.84375 86.003906 184.675781 84.988281 184.667969 L 70.015625 184.59375 C 69 184.589844 68.363281 183.753906 68.609375 182.738281 L 73.597656 161.789062 C 73.839844 160.769531 74.871094 159.941406 75.890625 159.949219 " fill-opacity="1" fill-rule="evenodd"/><path fill="#edba68" d="M 77.921875 175.691406 C 78.3125 175.542969 78.582031 175.144531 78.644531 174.957031 C 78.710938 174.773438 75.207031 173.585938 75.207031 173.585938 C 75.207031 173.585938 77.101562 175.601562 77.921875 175.691406 " fill-opacity="1" fill-rule="evenodd"/><path fill="#c3714e" d="M 64.449219 175.613281 C 65.46875 174.886719 70.777344 170.675781 71.027344 170.570312 C 71.277344 170.464844 75.402344 170.269531 75.402344 170.269531 L 79.820312 172.730469 C 79.820312 172.730469 78.335938 173.0625 77.8125 172.972656 C 77.289062 172.882812 75.972656 172.039062 75.972656 172.039062 L 73.882812 172.375 L 75.675781 173.226562 C 75.675781 173.226562 80.476562 176.175781 80.738281 176.238281 C 81.003906 176.304688 79.707031 176.835938 78.964844 176.679688 C 78.21875 176.523438 76.117188 175.566406 76.117188 175.566406 C 76.117188 175.566406 78.632812 177.398438 78.910156 177.636719 C 78.78125 177.878906 78.207031 178.09375 77.722656 178 L 77.875 178.191406 C 77.875 178.191406 77.054688 178.730469 76.015625 178.679688 C 74.976562 178.632812 74.386719 178.246094 74.386719 178.246094 C 74.386719 178.246094 72.390625 178.660156 72.046875 178.6875 C 71.707031 178.714844 70.074219 179.359375 69.410156 179.671875 C 68.742188 179.984375 66.292969 180.648438 65.808594 180.515625 C 65.324219 180.382812 64.457031 179.757812 64.457031 179.757812 L 64.449219 175.613281 " fill-opacity="1" fill-rule="evenodd"/><path stroke-linecap="butt" transform="matrix(0.0494243, 0, 0, -0.0494678, 1.742127, 299.773613)" fill="none" stroke-linejoin="miter" d="M 1445.236582 2545.141594 C 1445.236582 2545.141594 1463.651754 2537.7978 1480.56526 2527.137453 C 1497.478766 2516.556072 1510.519553 2504.316414 1510.519553 2504.316414 " stroke="#2f2e6b" stroke-width="12.482" stroke-opacity="1" stroke-miterlimit="22.926001"/><path stroke-linecap="butt" transform="matrix(0.0494243, 0, 0, -0.0494678, 1.742127, 299.773613)" fill="none" stroke-linejoin="miter" d="M 1536.522092 2461.438131 C 1519.371481 2466.965718 1486.413855 2482.285031 1477.878067 2485.048825 C 1469.342279 2487.812618 1423.660006 2486.865032 1423.660006 2486.865032 " stroke="#2f2e6b" stroke-width="12.482" stroke-opacity="1" stroke-miterlimit="22.926001"/><path fill="#ffffff" d="M 65.097656 173.890625 L 65.277344 180.828125 L 62.390625 180.902344 L 62.214844 173.964844 L 65.097656 173.890625 " fill-opacity="1" fill-rule="evenodd"/><path fill="#8fb2ee" d="M 38.136719 175.234375 C 45.882812 173.820312 54.75 174.21875 63.054688 173.714844 C 62.851562 177.449219 62.660156 177.84375 62.453125 181.578125 C 53.011719 182.96875 48.648438 183.582031 39.203125 184.976562 C 36.429688 185.386719 33.925781 184.222656 31.085938 182.15625 C 32.214844 179.839844 35.71875 175.578125 38.136719 175.234375 " fill-opacity="1" fill-rule="evenodd"/><path stroke-linecap="butt" transform="matrix(0.0494243, 0, 0, -0.0494678, 1.742127, 299.773613)" fill="none" stroke-linejoin="miter" d="M 1720.989955 1656.384536 C 1788.960119 1677.942126 2106.127871 1782.650421 2291.069945 1949.899417 " stroke="#2f2e6b" stroke-width="12.482" stroke-opacity="1" stroke-miterlimit="22.926001"/><path stroke-linecap="butt" transform="matrix(0.0494243, 0, 0, -0.0494678, 1.742127, 299.773613)" fill="none" stroke-linejoin="miter" d="M 1552.250072 1741.035586 C 1622.275148 1745.220759 1795.36196 1774.043178 1985.046138 1860.589401 " stroke="#2f2e6b" stroke-width="12.482" stroke-opacity="1" stroke-miterlimit="22.926001"/><g clip-path="url(#4fb5893927)"><path stroke-linecap="butt" transform="matrix(0.0494243, 0, 0, -0.0494678, 1.742127, 299.773613)" fill="none" stroke-linejoin="miter" d="M 571.42483 52.515625 C 660.102187 307.25843 711.791128 462.425699 711.791128 462.425699 L 874.287249 462.425699 L 660.102187 59.701488 Z M 571.42483 52.515625 " stroke="#8fb2ee" stroke-width="12.482" stroke-opacity="1" stroke-miterlimit="22.926001"/></g><g clip-path="url(#88f7d18cc8)"><path stroke-linecap="butt" transform="matrix(0.0494243, 0, 0, -0.0494678, 1.742127, 299.773613)" fill="none" stroke-linejoin="miter" d="M 1985.75755 52.515625 C 1897.159227 307.25843 1845.470286 462.425699 1845.470286 462.425699 L 1682.974166 462.425699 L 1897.159227 59.701488 Z M 1985.75755 52.515625 " stroke="#8fb2ee" stroke-width="12.482" stroke-opacity="1" stroke-miterlimit="22.926001"/></g><g clip-path="url(#30cd4260d9)"><path stroke-linecap="butt" transform="matrix(0.0494243, 0, 0, -0.0494678, 1.742127, 299.773613)" fill="none" stroke-linejoin="miter" d="M 415.251516 2330.039486 C 617.818421 2339.594316 1175.648001 2321.590174 1336.247279 2313.140862 C 1496.688487 2304.691551 1674.122237 2152.603937 1817.808009 1823.080774 C 1961.414746 1493.55761 2176.864368 585.532963 1999.430618 441.894661 C 1821.996868 298.256359 858.322163 378.64327 622.244385 441.894661 C 386.166607 505.067086 284.290392 864.360255 208.258647 1160.007205 C 132.226902 1455.733121 -169.845166 2302.40155 415.251516 2330.039486 Z M 415.251516 2330.039486 " stroke="#8fb2ee" stroke-width="12.482" stroke-opacity="1" stroke-miterlimit="22.926001"/></g><path fill="#e6e8f6" d="M 29.96875 203.882812 C 36.988281 203.550781 56.320312 204.171875 61.882812 204.46875 C 67.445312 204.757812 73.59375 210.035156 78.570312 221.464844 C 83.546875 232.890625 90.867188 263.367188 84.71875 268.351562 C 78.570312 273.332031 45.175781 270.542969 36.996094 268.351562 C 28.816406 266.15625 25.285156 253.699219 22.648438 243.441406 C 20.011719 233.1875 9.691406 204.839844 29.96875 203.882812 " fill-opacity="1" fill-rule="evenodd"/><g clip-path="url(#3c445076d3)"><path stroke-linecap="butt" transform="matrix(0.0494243, 0, 0, -0.0494678, 1.742127, 299.773613)" fill="none" stroke-linejoin="miter" d="M 3339.39133 263.037732 C 3250.713972 517.859502 3199.025031 672.947806 3199.025031 672.947806 L 3036.528911 672.947806 L 3250.713972 270.302561 Z M 3339.39133 263.037732 " stroke="#8fb2ee" stroke-width="12.482" stroke-opacity="1" stroke-miterlimit="22.926001"/></g><g clip-path="url(#dffb69da09)"><path fill="#ffffff" d="M 390.34375 273.367188 C 391.625 258.921875 394.054688 242.859375 397.960938 230.835938 C 404.113281 211.90625 410.757812 204.757812 410.757812 204.757812 C 410.757812 204.757812 413.578125 219.015625 408.207031 240.113281 C 404.46875 254.789062 400.421875 266.097656 398.230469 273.367188 L 390.34375 273.367188 " fill-opacity="1" fill-rule="evenodd"/></g><g clip-path="url(#2cbf760248)"><path stroke-linecap="butt" transform="matrix(0.0494243, 0, 0, -0.0494678, 1.742127, 299.773613)" fill="none" stroke-linejoin="miter" d="M 7862.56884 533.81054 C 7888.492346 825.825075 7937.652164 1150.531341 8016.687242 1393.587247 C 8141.16749 1776.254213 8275.606157 1920.761136 8275.606157 1920.761136 C 8275.606157 1920.761136 8332.669484 1632.536946 8223.996251 1206.04411 C 8148.359682 909.370608 8066.479341 680.765394 8022.140662 533.81054 Z M 7862.56884 533.81054 " stroke="#8fb2ee" stroke-width="12.482" stroke-opacity="1" stroke-miterlimit="22.926001"/></g><g clip-path="url(#93195ddbeb)"><path stroke-linecap="butt" transform="matrix(0.0494243, 0, 0, -0.0494678, 1.742127, 299.773613)" fill="none" stroke-linejoin="miter" d="M 8275.606157 1920.761136 C 8275.606157 1920.761136 7976.774528 1180.617209 7983.018299 784.841964 " stroke="#8fb2ee" stroke-width="12.482" stroke-opacity="1" stroke-miterlimit="22.926001"/></g><path fill="#ffffff" d="M 385.121094 273.367188 C 383.992188 267.464844 382.636719 261.847656 381.035156 256.910156 C 374.882812 237.980469 368.238281 230.835938 368.238281 230.835938 C 368.238281 230.835938 365.417969 245.089844 370.789062 266.1875 C 371.425781 268.679688 372.066406 271.074219 372.710938 273.367188 L 385.121094 273.367188 " fill-opacity="1" fill-rule="evenodd"/><path stroke-linecap="butt" transform="matrix(0.0494243, 0, 0, -0.0494678, 1.742127, 299.773613)" fill="none" stroke-linejoin="miter" d="M 7756.898565 533.81054 C 7734.057428 653.127458 7706.632258 766.679892 7674.227877 866.492324 C 7549.747635 1249.15929 7415.308974 1393.587247 7415.308974 1393.587247 C 7415.308974 1393.587247 7358.245651 1105.442023 7466.918878 678.949187 C 7479.801595 628.569177 7492.763347 580.163307 7505.804134 533.81054 Z M 7756.898565 533.81054 " stroke="#8fb2ee" stroke-width="12.482" stroke-opacity="1" stroke-miterlimit="22.926001"/><path fill="#ffffff" d="M 394.609375 273.367188 C 397.582031 254.277344 400.289062 223.960938 398.046875 202.839844 C 395.679688 180.511719 394.886719 170.6875 394.886719 170.6875 C 394.886719 170.6875 386.992188 186.316406 386.199219 210.878906 C 385.410156 235.4375 385.015625 251.960938 384.226562 257.765625 C 383.742188 261.328125 383.851562 268.421875 384.007812 273.367188 L 394.609375 273.367188 " fill-opacity="1" fill-rule="evenodd"/><g clip-path="url(#9f332b208b)"><path stroke-linecap="butt" transform="matrix(0.0494243, 0, 0, -0.0494678, 1.742127, 299.773613)" fill="none" stroke-linejoin="miter" d="M 7948.875145 533.81054 C 8009.020839 919.715092 8063.792149 1532.566583 8018.426014 1959.533212 C 7970.530757 2410.900191 7954.486636 2609.498502 7954.486636 2609.498502 C 7954.486636 2609.498502 7794.756743 2293.557411 7778.712622 1797.022148 C 7762.747537 1300.565851 7754.764994 966.541653 7738.799908 849.198873 C 7728.999558 777.182308 7731.212541 633.780903 7734.373944 533.81054 Z M 7948.875145 533.81054 " stroke="#8fb2ee" stroke-width="12.482" stroke-opacity="1" stroke-miterlimit="22.926001"/></g><path fill="#ffffff" d="M 378.085938 273.367188 C 375.269531 256.414062 372.882812 231.066406 375.027344 213.171875 C 377.398438 193.410156 378.1875 184.714844 378.1875 184.714844 C 378.1875 184.714844 386.085938 198.546875 386.875 220.289062 C 387.664062 242.027344 388.058594 256.648438 388.847656 261.789062 C 389.253906 264.4375 389.242188 269.289062 389.136719 273.367188 L 378.085938 273.367188 " fill-opacity="1" fill-rule="evenodd"/><path stroke-linecap="butt" transform="matrix(0.0494243, 0, 0, -0.0494678, 1.742127, 299.773613)" fill="none" stroke-linejoin="miter" d="M 7614.556396 533.81054 C 7557.572108 876.520947 7509.281677 1388.928281 7552.671933 1750.669381 C 7600.646223 2150.156005 7616.611308 2325.933279 7616.611308 2325.933279 C 7616.611308 2325.933279 7776.420228 2046.316331 7792.385313 1606.794183 C 7808.350398 1167.350999 7816.33294 871.783015 7832.298025 767.864375 C 7840.517673 714.325745 7840.280568 616.250555 7838.146621 533.81054 Z M 7614.556396 533.81054 " stroke="#8fb2ee" stroke-width="12.482" stroke-opacity="1" stroke-miterlimit="22.926001"/><path stroke-linecap="butt" transform="matrix(0.0494243, 0, 0, -0.0494678, 1.742127, 299.773613)" fill="none" stroke-linejoin="miter" d="M 7616.611308 2325.933279 C 7682.68463 1733.849723 7708.687169 1494.2683 7691.457523 1180.380312 C 7677.863491 933.691991 7724.178044 708.482295 7757.214705 533.81054 " stroke="#8fb2ee" stroke-width="12.482" stroke-opacity="1" stroke-miterlimit="22.926001"/><g clip-path="url(#a0bf12e263)"><path stroke-linecap="butt" transform="matrix(0.0494243, 0, 0, -0.0494678, 1.742127, 299.773613)" fill="none" stroke-linejoin="miter" d="M 7954.486636 2609.498502 C 7954.486636 2609.498502 7936.545673 1710.239029 7919.869272 1294.564471 C 7908.883396 1021.106835 7919.948307 742.437474 7883.750241 533.81054 " stroke="#8fb2ee" stroke-width="12.482" stroke-opacity="1" stroke-miterlimit="22.926001"/></g><path stroke-linecap="butt" transform="matrix(0.0494243, 0, 0, -0.0494678, 1.742127, 299.773613)" fill="none" stroke-linejoin="miter" d="M 7415.308974 1393.587247 C 7415.308974 1393.587247 7490.31326 951.222339 7603.965696 533.81054 " stroke="#8fb2ee" stroke-width="12.482" stroke-opacity="1" stroke-miterlimit="22.926001"/><g clip-path="url(#db27c4d605)"><path fill="#e6e8f6" d="M 401.996094 275.835938 C 401.597656 281.894531 401.292969 294.117188 397.644531 299.773438 L 373.113281 299.773438 C 369.460938 294.117188 369.15625 281.894531 368.757812 275.835938 L 367.660156 275.835938 C 367.46875 275.835938 367.3125 275.679688 367.3125 275.488281 L 367.3125 273.148438 C 367.3125 272.957031 367.46875 272.800781 367.660156 272.800781 L 403.097656 272.800781 C 403.285156 272.800781 403.441406 272.957031 403.441406 273.148438 L 403.441406 275.488281 C 403.441406 275.679688 403.285156 275.835938 403.097656 275.835938 L 401.996094 275.835938 " fill-opacity="1" fill-rule="evenodd"/></g><path fill="#2f2e6b" d="M 57.554688 129.1875 C 63.09375 129.1875 67.609375 124.664062 67.609375 119.125 C 67.609375 113.582031 63.09375 109.0625 57.554688 109.0625 C 52.019531 109.0625 47.503906 113.582031 47.503906 119.125 C 47.503906 124.664062 52.019531 129.1875 57.554688 129.1875 " fill-opacity="1" fill-rule="evenodd"/><path fill="#c3714e" d="M 64.527344 137.910156 C 64.527344 141.804688 69.445312 143.605469 72.113281 142.996094 C 74.777344 142.390625 75.578125 140.589844 75.578125 137.910156 C 75.578125 133.925781 75.578125 131.253906 75.578125 127.273438 C 71.894531 127.273438 68.210938 121.164062 64.527344 121.164062 C 64.527344 125.144531 64.527344 133.925781 64.527344 137.910156 " fill-opacity="1" fill-rule="evenodd"/><path fill="#2f2e6b" d="M 75.578125 129.949219 L 75.578125 127.273438 C 71.894531 127.273438 68.210938 121.164062 64.527344 121.164062 L 64.527344 125.617188 C 67.171875 132.800781 71.078125 133.359375 72.429688 133.046875 C 73.664062 132.765625 74.976562 131.464844 75.578125 129.949219 " fill-opacity="1" fill-rule="evenodd"/><path fill="#c3714e" d="M 68.601562 101.0625 C 71.269531 100.710938 79.320312 99.726562 80.902344 109.050781 C 82.488281 118.375 81.570312 121.695312 81.070312 123.535156 C 80.492188 125.640625 79.292969 128.476562 76.472656 128.957031 C 70.390625 129.984375 67.605469 127.742188 65.714844 126.207031 C 64.238281 125.003906 61.707031 121.886719 60.402344 112.515625 C 59.097656 103.152344 65.953125 101.535156 68.601562 101.0625 " fill-opacity="1" fill-rule="evenodd"/><path fill="#2f2e6b" d="M 75.847656 103.03125 C 77.992188 102.5 81.105469 107.597656 81.398438 112.65625 C 84.898438 103.828125 78.40625 96.667969 69.011719 97.644531 C 66.140625 97.945312 62.0625 98.269531 58.03125 103.328125 C 55.660156 106.304688 52.710938 114.523438 61.371094 120.347656 C 61.121094 112.960938 65.4375 112.316406 67.804688 111.050781 C 74.335938 107.5625 72.488281 103.429688 75.847656 103.03125 " fill-opacity="1" fill-rule="evenodd"/><path fill="#f66f82" d="M 68.210938 118.09375 C 69.472656 118.273438 70.40625 119.015625 70.304688 119.757812 C 70.199219 120.5 69.09375 120.960938 67.835938 120.78125 C 66.578125 120.605469 65.644531 119.863281 65.75 119.121094 C 65.851562 118.378906 66.957031 117.917969 68.210938 118.09375 " fill-opacity="1" fill-rule="evenodd"/><path fill="#2f2e6b" d="M 79.066406 112.972656 C 78.566406 113.050781 78.21875 113.621094 78.296875 114.242188 C 78.367188 114.863281 78.835938 115.300781 79.335938 115.21875 C 79.839844 115.136719 80.183594 114.566406 80.109375 113.945312 C 80.035156 113.328125 79.570312 112.890625 79.066406 112.972656 " fill-opacity="1" fill-rule="evenodd"/><path fill="#2f2e6b" d="M 70.417969 114.308594 C 70.921875 114.238281 71.425781 114.675781 71.539062 115.289062 C 71.65625 115.902344 71.34375 116.460938 70.84375 116.535156 C 70.339844 116.609375 69.835938 116.167969 69.722656 115.558594 C 69.605469 114.941406 69.917969 114.382812 70.417969 114.308594 " fill-opacity="1" fill-rule="evenodd"/><path stroke-linecap="butt" transform="matrix(0.0494243, 0, 0, -0.0494678, 1.742127, 299.773613)" fill="none" stroke-linejoin="miter" d="M 1513.601921 3812.143548 C 1477.245787 3761.684574 1530.673497 3708.935598 1536.601127 3674.427661 C 1542.528758 3639.919724 1476.297366 3642.525586 1476.297366 3642.525586 " stroke="#2f2e6b" stroke-width="12.482" stroke-opacity="1" stroke-miterlimit="22.926001"/><path stroke-linecap="butt" transform="matrix(0.0494243, 0, 0, -0.0494678, 1.742127, 299.773613)" fill="none" stroke-linejoin="miter" d="M 1410.382114 3800.693546 C 1410.382114 3800.693546 1383.115013 3815.223204 1344.545897 3789.796303 " stroke="#2f2e6b" stroke-width="12.482" stroke-opacity="1" stroke-miterlimit="22.926001"/><path stroke-linecap="butt" transform="matrix(0.0494243, 0, 0, -0.0494678, 1.742127, 299.773613)" fill="none" stroke-linejoin="miter" d="M 1523.797445 3818.223894 C 1523.797445 3818.223894 1545.453056 3840.413209 1589.870767 3827.778723 " stroke="#2f2e6b" stroke-width="12.482" stroke-opacity="1" stroke-miterlimit="22.926001"/><path fill="#c3714e" d="M 62.390625 116.792969 C 62.054688 116.207031 61.695312 115.816406 60.898438 115.773438 C 60.101562 115.734375 58.761719 116.34375 59.101562 118.53125 C 59.441406 120.71875 61.558594 122.316406 62.671875 121.878906 C 63.78125 121.4375 62.59375 117.359375 62.390625 116.792969 " fill-opacity="1" fill-rule="evenodd"/><path fill="#f66f82" d="M 61.820312 121.59375 C 62.195312 121.539062 62.546875 121.792969 62.601562 122.167969 C 62.660156 122.542969 62.40625 122.894531 62.03125 122.953125 C 61.65625 123.011719 61.304688 122.753906 61.25 122.378906 C 61.191406 122.003906 61.445312 121.652344 61.820312 121.59375 " fill-opacity="1" fill-rule="evenodd"/><path stroke-linecap="butt" transform="matrix(0.0494243, 0, 0, -0.0494678, 1.742127, 299.773613)" fill="none" stroke-linejoin="miter" d="M 1215.955832 3674.822489 C 1215.086446 3680.350076 1189.637152 3702.697321 1173.909172 3682.40318 " stroke="#2f2e6b" stroke-width="9.362001" stroke-opacity="1" stroke-miterlimit="22.926001"/><path stroke-linecap="round" transform="matrix(0.0494243, 0, 0, -0.0494678, 1.742127, 299.773613)" fill="none" stroke-linejoin="miter" d="M 1546.875687 3584.170059 C 1552.882352 3587.881439 1553.198493 3600.594889 1549.404809 3606.912132 C 1545.611126 3613.387305 1531.859023 3620.967996 1524.508761 3617.098685 C 1517.237534 3613.150409 1510.756658 3612.59765 1504.038677 3613.861098 C 1501.035344 3614.492823 1490.049469 3612.044891 1480.960435 3602.805924 C 1467.524472 3589.223853 1473.926313 3588.276266 1455.353071 3575.641781 C 1474.479559 3569.087642 1504.354817 3574.299367 1517.474639 3578.48454 " stroke="#2f2e6b" stroke-width="12.482" stroke-opacity="1" stroke-miterlimit="22.926001"/><path stroke-linecap="butt" transform="matrix(0.0494243, 0, 0, -0.0494678, 1.742127, 299.773613)" fill="none" stroke-linejoin="miter" d="M 1539.13025 3550.372811 C 1527.195953 3545.713845 1503.406396 3534.105912 1470.922981 3548.161776 " stroke="#2f2e6b" stroke-width="12.482" stroke-opacity="1" stroke-miterlimit="22.926001"/><path fill="#2f2e6b" d="M 74.320312 113.640625 C 74.320312 113.640625 74.34375 114.191406 74.289062 114.566406 C 74.230469 114.945312 74.257812 117.75 73.496094 117.894531 C 72.746094 118.140625 68.777344 118.707031 68.308594 118.519531 C 67.84375 118.328125 66.328125 116.097656 66.648438 114.785156 C 68.917969 113.617188 73.765625 113.648438 74.320312 113.640625 Z M 77.453125 113.152344 C 77.984375 112.992188 79.824219 111.917969 82.339844 112.335938 C 83.042969 113.488281 82.277344 116.078125 81.890625 116.398438 C 81.503906 116.722656 80.324219 116.960938 79.535156 116.953125 C 78.761719 117.046875 77.933594 114.363281 77.765625 114.023438 C 77.59375 113.683594 77.453125 113.152344 77.453125 113.152344 Z M 75.105469 113.09375 C 74.316406 113.101562 68.484375 113.078125 65.738281 114.492188 C 65.34375 116.097656 67.199219 118.832031 67.773438 119.0625 C 68.34375 119.296875 73.203125 118.601562 74.121094 118.300781 C 75.054688 118.121094 75.019531 114.683594 75.089844 114.222656 C 75.113281 114.09375 75.125 113.945312 75.128906 113.804688 C 75.839844 113.523438 75.964844 113.445312 76.730469 113.550781 C 76.78125 113.6875 76.835938 113.824219 76.894531 113.945312 C 77.101562 114.359375 78.113281 117.640625 79.0625 117.527344 C 80.027344 117.539062 82.097656 117.148438 82.570312 116.753906 C 83.046875 116.359375 83.980469 113.191406 83.117188 111.78125 C 80.128906 111.28125 77.496094 112.570312 76.585938 112.855469 C 75.789062 112.8125 75.855469 112.839844 75.105469 113.09375 " fill-opacity="1" fill-rule="evenodd"/><path fill="#2f2e6b" d="M 309.777344 108.070312 C 310.734375 106.535156 309.488281 102.992188 306.332031 103.566406 C 303.171875 104.140625 304.222656 105.386719 301.734375 105.003906 C 299.542969 104.664062 298.402344 102.167969 295.324219 103.949219 C 292.910156 105.34375 293.675781 107.226562 292.066406 108.835938 C 290.632812 110.273438 287.640625 108.691406 285.847656 111.613281 C 284.15625 114.363281 286.996094 114.773438 286.324219 116.210938 C 285.65625 117.648438 282.304688 118.03125 281.730469 120.8125 C 281.125 123.714844 283.742188 123.398438 283.550781 124.929688 C 283.359375 126.464844 279.855469 124.703125 279.625 128.859375 C 279.53125 130.582031 281.632812 131.921875 281.632812 131.921875 C 281.632812 131.921875 280.175781 135.507812 284.21875 136.8125 C 286.007812 137.386719 287.664062 136.140625 289.101562 137.097656 C 290.535156 138.054688 289.386719 139.207031 292.066406 139.492188 C 294.75 139.78125 301.257812 141.3125 303.746094 136.90625 C 306.234375 132.5 309.777344 108.070312 309.777344 108.070312 " fill-opacity="1" fill-rule="evenodd"/><path fill="#2f2e6b" d="M 298.578125 105.34375 C 297.488281 103.597656 298.902344 99.566406 302.5 100.21875 C 306.09375 100.875 304.894531 102.292969 307.726562 101.855469 C 310.226562 101.46875 311.519531 98.628906 315.027344 100.65625 C 317.773438 102.242188 316.898438 104.382812 318.730469 106.21875 C 320.363281 107.851562 323.769531 106.054688 325.8125 109.378906 C 327.734375 112.507812 324.503906 112.976562 325.265625 114.613281 C 326.027344 116.25 329.839844 116.683594 330.496094 119.847656 C 331.183594 123.152344 328.207031 122.789062 328.425781 124.535156 C 328.644531 126.28125 332.628906 124.277344 332.890625 129.007812 C 333 130.96875 330.605469 132.496094 330.605469 132.496094 C 330.605469 132.496094 332.261719 136.574219 327.664062 138.054688 C 325.625 138.710938 323.742188 137.292969 322.109375 138.382812 C 320.472656 139.472656 321.78125 140.78125 318.730469 141.109375 C 315.679688 141.433594 308.269531 143.179688 305.4375 138.164062 C 302.605469 133.148438 298.578125 105.34375 298.578125 105.34375 " fill-opacity="1" fill-rule="evenodd"/><path fill="#e6e8f6" d="M 355.644531 148.582031 L 313.433594 148.300781 C 310.035156 148.277344 307.703125 151.230469 306.667969 154.488281 L 295.527344 189.507812 C 294.488281 192.765625 297.71875 195.625 301.117188 195.695312 L 354.761719 196.8125 C 358.160156 196.882812 360.457031 193.871094 361.53125 190.625 L 370.160156 164.535156 C 372.976562 156.015625 369.363281 148.671875 355.644531 148.582031 " fill-opacity="1" fill-rule="evenodd"/><path stroke-linecap="butt" transform="matrix(0.0494243, 0, 0, -0.0494678, 1.742127, 299.773613)" fill="none" stroke-linejoin="miter" d="M 5904.079322 2412.637432 C 5712.656373 2421.639503 5185.413394 2404.661914 5033.666051 2396.686395 C 4881.918709 2388.631911 4714.285317 2244.914643 4578.503059 1933.474587 C 4442.799837 1622.03453 4243.15724 791.554035 4410.790632 655.812286 C 4578.503059 520.070537 5489.303253 596.035378 5712.419268 655.812286 C 5935.535282 715.589193 6031.800002 1055.140979 6103.72192 1334.599995 C 6175.564802 1614.059011 6457.087736 2386.499841 5904.079322 2412.637432 Z M 5904.079322 2412.637432 " stroke="#8fb2ee" stroke-width="12.482" stroke-opacity="1" stroke-miterlimit="22.926001"/><path stroke-linecap="butt" transform="matrix(0.0494243, 0, 0, -0.0494678, 1.742127, 299.773613)" fill="none" stroke-linejoin="miter" d="M 7209.027431 3182.551365 L 6000.423078 3190.526884 C 5903.051866 3191.158608 5836.188194 3106.744455 5806.550041 3013.565127 L 5487.564482 2011.571497 C 5457.926329 1918.39217 5550.397366 1836.583879 5647.689542 1834.609741 L 7183.736207 1802.628701 C 7281.028383 1800.575597 7346.8646 1886.805958 7377.609244 1979.590457 L 7624.751921 2726.051627 C 7705.367696 2969.818223 7601.831749 3179.945502 7209.027431 3182.551365 Z M 7209.027431 3182.551365 " stroke="#8fb2ee" stroke-width="12.482" stroke-opacity="1" stroke-miterlimit="22.926001"/><path stroke-linecap="butt" transform="matrix(0.0494243, 0, 0, -0.0494678, 1.742127, 299.773613)" fill="none" stroke-linejoin="miter" d="M 7102.962361 1759.35559 L 5729.095668 1767.962832 C 5648.242787 1768.515591 5582.248501 1701.868683 5582.248501 1621.086944 C 5582.248501 1540.384171 5648.321823 1474.763814 5729.095668 1474.290021 L 7102.962361 1465.682778 C 7183.736207 1465.130019 7249.809529 1531.697962 7249.809529 1612.479701 C 7249.809529 1693.26144 7183.736207 1758.881796 7102.962361 1759.35559 Z M 7102.962361 1759.35559 " stroke="#8fb2ee" stroke-width="12.482" stroke-opacity="1" stroke-miterlimit="22.926001"/><path fill="#c3714e" d="M 291.613281 287.292969 L 290.929688 290.566406 L 279.703125 295.296875 L 279.191406 293.269531 L 284.753906 287.171875 L 275.082031 264.410156 L 286.808594 270.015625 L 291.613281 287.292969 " fill-opacity="1" fill-rule="evenodd"/><path fill="#c3714e" d="M 289.59375 145.421875 C 287.4375 147.292969 286.285156 151.183594 281.246094 163.292969 C 276.207031 175.398438 274.617188 180.667969 273.792969 182.328125 C 275.84375 184.804688 275.886719 184.507812 279.90625 187.097656 C 284.863281 182.96875 289.5625 170.882812 292.160156 165.078125 C 293.84375 161.316406 298.410156 147.363281 289.59375 145.421875 " fill-opacity="1" fill-rule="evenodd"/><path fill="#c3714e" d="M 276.382812 284.71875 L 276.214844 288.058594 L 265.859375 294.480469 L 265.042969 292.554688 L 269.589844 285.667969 L 256.503906 264.683594 L 266.1875 262.433594 L 276.382812 284.71875 " fill-opacity="1" fill-rule="evenodd"/><path fill="#2f2e6b" d="M 278.484375 288.289062 L 266.988281 295.0625 L 265.042969 292.554688 C 266.144531 293.304688 274.628906 288.308594 275.421875 286.683594 L 276.382812 284.71875 L 278.484375 288.289062 " fill-opacity="1" fill-rule="evenodd"/><path fill="#2f2e6b" d="M 266.988281 295.0625 L 260.199219 295.09375 C 260.199219 295.09375 259.773438 294.117188 261.0625 293.734375 L 265.042969 292.554688 L 266.988281 295.0625 " fill-opacity="1" fill-rule="evenodd"/><path fill="#f66f82" d="M 247.703125 213.65625 C 253.589844 227.570312 258.65625 242.394531 266.640625 263.292969 L 256.410156 267.394531 L 230.898438 222.421875 L 247.703125 213.65625 " fill-opacity="1" fill-rule="evenodd"/><path fill="#f66f82" d="M 274.515625 220.101562 C 259.398438 220.609375 245.742188 222.617188 230.898438 222.421875 C 229.136719 218.984375 228.667969 215.789062 228.730469 212.476562 C 228.878906 204.699219 232.5625 202.09375 236.503906 201.515625 C 255.507812 198.734375 270.53125 195.839844 289.035156 194.558594 C 290.558594 194.453125 291.691406 193.765625 292.394531 192.226562 C 294.300781 192.128906 313.507812 191.234375 315.5 191.171875 C 314.753906 210.773438 296.691406 221 274.515625 220.101562 " fill-opacity="1" fill-rule="evenodd"/><path fill="#f66f82" d="M 299.820312 219.464844 C 284.707031 219.96875 271.894531 222.625 257.050781 222.433594 C 255.511719 218.449219 254.378906 215.988281 253.261719 212.28125 C 251.023438 204.832031 256.3125 202.78125 262.605469 201.515625 C 284.863281 197.050781 297.820312 192.613281 321.476562 191.859375 C 325.5 207.484375 322.476562 215.589844 299.820312 219.464844 " fill-opacity="1" fill-rule="evenodd"/><path fill="#ffffff" d="M 307.621094 191.863281 C 302.777344 191.863281 297.847656 191.859375 293.003906 191.859375 C 294.234375 184.429688 294.644531 175.914062 294.398438 168.261719 C 292.730469 165.671875 291.082031 164.398438 290.460938 162.113281 C 289.789062 159.628906 290.59375 155.394531 291.066406 153.84375 C 290.65625 151.808594 290.121094 148 289.867188 145.902344 C 293.679688 142.152344 300.507812 138.980469 307.621094 138.980469 C 314.738281 138.980469 321.5625 142.152344 325.378906 145.902344 C 324.363281 154.246094 321.703125 161.972656 320.6875 170.316406 C 320.445312 177.96875 320.246094 184.429688 321.476562 191.859375 C 316.632812 191.859375 312.46875 191.863281 307.621094 191.863281 " fill-opacity="1" fill-rule="evenodd"/><path stroke-linecap="butt" transform="matrix(0.0494243, 0, 0, -0.0494678, 1.742127, 299.773613)" fill="none" stroke-linejoin="miter" d="M 6188.842694 2181.426356 C 6090.839202 2181.426356 5991.096939 2181.505321 5893.093447 2181.505321 C 5917.989495 2331.697762 5926.288178 2503.842621 5921.308969 2658.536098 C 5887.560992 2710.890245 5854.208191 2736.633008 5841.641614 2782.827844 C 5828.047581 2833.049922 5844.328806 2918.648559 5853.89205 2949.997875 C 5845.593368 2991.138917 5834.765562 3068.13031 5829.628283 3110.5348 C 5906.766515 3186.341711 6044.919824 3250.461722 6188.842694 3250.461722 C 6332.844599 3250.461722 6470.918874 3186.341711 6548.136141 3110.5348 C 6527.587022 2941.864425 6473.764137 2785.670603 6453.215017 2617.000228 C 6448.314843 2462.306752 6444.284054 2331.697762 6469.180102 2181.505321 C 6371.17661 2181.505321 6286.925221 2181.426356 6188.842694 2181.426356 Z M 6188.842694 2181.426356 " stroke="#2f2e6b" stroke-width="12.482" stroke-opacity="1" stroke-miterlimit="22.926001"/><path fill="#c3714e" d="M 324.851562 145.351562 C 331.746094 149.144531 331.710938 179.898438 331.757812 186.109375 L 325.6875 188.882812 C 322.144531 182.242188 319.011719 157.085938 319.011719 157.085938 C 317.367188 151.5 319.703125 142.523438 324.851562 145.351562 " fill-opacity="1" fill-rule="evenodd"/><path fill="#2f2e6b" d="M 292.394531 192.226562 L 321.976562 192.226562 L 321.976562 189.261719 L 292.394531 189.261719 L 292.394531 192.226562 " fill-opacity="1" fill-rule="evenodd"/><path stroke-linecap="butt" transform="matrix(0.0494243, 0, 0, -0.0494678, 1.742127, 299.773613)" fill="none" stroke-linejoin="miter" d="M 6304.312938 2621.580229 C 6304.312938 2621.580229 6171.929189 2660.984029 5993.072816 2675.27679 " stroke="#2f2e6b" stroke-width="12.482" stroke-opacity="1" stroke-miterlimit="22.926001"/><path fill="#f66f82" d="M 274.917969 216.734375 C 281.71875 240.761719 283.710938 253.171875 288.554688 274.066406 L 278.289062 274.554688 C 269.855469 254.074219 264.3125 241.351562 255.125 217.449219 L 274.917969 216.734375 " fill-opacity="1" fill-rule="evenodd"/><path fill="#c3714e" d="M 278.222656 177.851562 C 269.316406 168.671875 263.171875 164.984375 257.5625 159.734375 C 257.269531 159.796875 256.339844 159.90625 254.359375 161.769531 C 257.585938 168.238281 271.835938 187.839844 279.90625 187.097656 C 280.378906 183.886719 280.5625 180.265625 278.222656 177.851562 " fill-opacity="1" fill-rule="evenodd"/><path fill="#2f2e6b" d="M 293.132812 291.144531 L 280.726562 296.046875 L 279.191406 293.269531 C 280.167969 294.183594 289.320312 290.566406 290.355469 289.082031 L 291.613281 287.292969 L 293.132812 291.144531 " fill-opacity="1" fill-rule="evenodd"/><path fill="#2f2e6b" d="M 280.726562 296.046875 L 273.9375 296.050781 C 273.9375 296.050781 273.527344 295.113281 274.804688 294.695312 L 279.191406 293.269531 L 280.726562 296.046875 " fill-opacity="1" fill-rule="evenodd"/><path stroke-linecap="butt" transform="matrix(0.0494243, 0, 0, -0.0494678, 1.742127, 299.773613)" fill="none" stroke-linejoin="miter" d="M 6375.286434 2174.714286 C 6357.266437 1863.984919 6105.144551 1742.456966 5447.730804 1760.461107 C 5285.629867 1683.943507 5744.902683 517.701571 5744.902683 517.701571 " stroke="#ffffff" stroke-width="12.482" stroke-opacity="1" stroke-miterlimit="22.926001"/><path stroke-linecap="butt" transform="matrix(0.0494243, 0, 0, -0.0494678, 1.742127, 299.773613)" fill="none" stroke-linejoin="miter" d="M 5600.110427 1672.651436 C 5553.716839 1719.556962 5520.601143 1830.424568 5461.087732 1813.289048 C 5401.574321 1796.232493 5522.339914 1687.575921 5501.948865 1644.381776 C 5481.557816 1601.266595 5444.016156 1692.076957 5415.089319 1716.003513 " stroke="#2f2e6b" stroke-width="12.482" stroke-opacity="1" stroke-miterlimit="22.926001"/><path fill="#c3714e" d="M 257.5625 159.734375 C 255.144531 156.808594 251.636719 156.679688 250.273438 157.496094 L 249.253906 158.105469 C 249.253906 158.105469 246.179688 158.035156 245.84375 158.125 C 245.503906 158.214844 244.003906 157.914062 242.792969 157.867188 C 242.238281 157.085938 241.28125 154.925781 239.769531 155.113281 C 239.625 155.226562 239.519531 155.6875 239.519531 155.6875 C 239.246094 155.347656 237.890625 154.484375 238.152344 155.675781 C 237.507812 156.101562 238.0625 156.515625 239.183594 158.097656 C 239.828125 159 240.292969 159.863281 240.292969 159.863281 L 241.609375 161.554688 C 241.609375 161.554688 244.359375 162.933594 244.742188 163.011719 C 245.125 163.09375 247.492188 163.8125 248.101562 163.863281 C 249.304688 163.964844 255.542969 164.378906 256.222656 164.488281 C 256.859375 163.457031 257.277344 160.269531 257.5625 159.734375 " fill-opacity="1" fill-rule="evenodd"/><path stroke-linecap="butt" transform="matrix(0.0494243, 0, 0, -0.0494678, 1.742127, 299.773613)" fill="none" stroke-linejoin="miter" d="M 4778.540832 2908.383039 L 4844.377049 2807.386125 " stroke="#2f2e6b" stroke-width="12.482" stroke-opacity="1" stroke-miterlimit="22.926001"/><path stroke-linecap="butt" transform="matrix(0.0494243, 0, 0, -0.0494678, 1.742127, 299.773613)" fill="none" stroke-linejoin="miter" d="M 4811.814598 2909.172695 L 4855.91617 2836.287509 L 4978.025359 2817.493713 " stroke="#2f2e6b" stroke-width="12.482" stroke-opacity="1" stroke-miterlimit="22.926001"/><path fill="#c3714e" d="M 253.480469 157.3125 C 253.148438 156.925781 250.777344 156.496094 250.359375 156.460938 C 249.941406 156.429688 248.015625 156.0625 247.359375 155.621094 C 246.703125 155.175781 245.515625 155.023438 245.03125 155.046875 C 244.660156 155.394531 245.636719 157.066406 246.628906 157.445312 C 247.621094 157.824219 248.410156 157.902344 248.902344 158.152344 C 249.394531 158.402344 249.792969 159.066406 249.792969 159.066406 L 255.101562 159.097656 C 255.101562 159.09375 253.667969 157.535156 253.480469 157.3125 " fill-opacity="1" fill-rule="evenodd"/><path fill="#c3714e" d="M 327.371094 179.644531 C 336.277344 170.460938 342.421875 166.773438 348.03125 161.523438 C 348.320312 161.582031 349.25 161.695312 351.234375 163.554688 C 348.007812 170.027344 333.757812 189.632812 325.6875 188.882812 C 325.210938 185.675781 325.03125 182.054688 327.371094 179.644531 " fill-opacity="1" fill-rule="evenodd"/><path fill="#c3714e" d="M 348.03125 161.523438 C 350.445312 158.601562 353.957031 158.46875 355.316406 159.285156 L 356.335938 159.894531 C 356.335938 159.894531 359.414062 159.824219 359.75 159.914062 C 360.089844 160.003906 361.589844 159.703125 362.800781 159.65625 C 363.355469 158.875 364.3125 156.710938 365.820312 156.902344 C 365.96875 157.011719 366.074219 157.476562 366.074219 157.476562 C 366.347656 157.136719 367.703125 156.273438 367.441406 157.464844 C 368.085938 157.890625 367.53125 158.300781 366.40625 159.886719 C 365.765625 160.789062 365.296875 161.652344 365.296875 161.652344 L 363.984375 163.34375 C 363.984375 163.34375 361.230469 164.722656 360.847656 164.800781 C 360.464844 164.882812 358.101562 165.601562 357.492188 165.652344 C 356.289062 165.753906 350.050781 166.167969 349.371094 166.277344 C 348.734375 165.246094 348.3125 162.058594 348.03125 161.523438 " fill-opacity="1" fill-rule="evenodd"/><path stroke-linecap="butt" transform="matrix(0.0494243, 0, 0, -0.0494678, 1.742127, 299.773613)" fill="none" stroke-linejoin="miter" d="M 7403.927924 2872.216826 L 7338.012672 2771.219911 " stroke="#2f2e6b" stroke-width="12.482" stroke-opacity="1" stroke-miterlimit="22.926001"/><path stroke-linecap="butt" transform="matrix(0.0494243, 0, 0, -0.0494678, 1.742127, 299.773613)" fill="none" stroke-linejoin="miter" d="M 7370.654157 2873.006481 L 7326.552586 2800.121296 L 7204.364362 2781.327499 " stroke="#2f2e6b" stroke-width="12.482" stroke-opacity="1" stroke-miterlimit="22.926001"/><path fill="#c3714e" d="M 352.113281 159.101562 C 352.441406 158.714844 354.816406 158.285156 355.234375 158.25 C 355.652344 158.21875 357.578125 157.855469 358.234375 157.410156 C 358.886719 156.96875 360.078125 156.8125 360.5625 156.835938 C 360.933594 157.183594 359.953125 158.851562 358.964844 159.234375 C 357.972656 159.613281 357.183594 159.691406 356.6875 159.941406 C 356.199219 160.191406 355.800781 160.855469 355.800781 160.855469 L 350.492188 160.886719 C 350.488281 160.882812 351.921875 159.324219 352.113281 159.101562 " fill-opacity="1" fill-rule="evenodd"/><g clip-path="url(#5f31a93d67)"><path stroke-linecap="butt" transform="matrix(0.0494243, 0, 0, -0.0494678, 1.742127, 299.773613)" fill="none" stroke-linejoin="miter" d="M 7181.839714 88.208045 C 7098.062531 328.973951 7049.218853 475.612943 7049.218853 475.612943 L 6895.653697 475.612943 L 7098.062531 94.999081 Z M 7181.839714 88.208045 " stroke="#8fb2ee" stroke-width="12.482" stroke-opacity="1" stroke-miterlimit="22.926001"/></g><g clip-path="url(#1ee462dafc)"><path stroke-linecap="butt" transform="matrix(0.0494243, 0, 0, -0.0494678, 1.742127, 299.773613)" fill="none" stroke-linejoin="miter" d="M 5845.119441 88.208045 C 5928.896623 328.973951 5977.740301 475.612943 5977.740301 475.612943 L 6131.305458 475.612943 L 5928.896623 94.999081 Z M 5845.119441 88.208045 " stroke="#8fb2ee" stroke-width="12.482" stroke-opacity="1" stroke-miterlimit="22.926001"/></g><g clip-path="url(#597c3e6dde)"><path stroke-linecap="butt" transform="matrix(0.0494243, 0, 0, -0.0494678, 1.742127, 299.773613)" fill="none" stroke-linejoin="miter" d="M 7329.477239 2240.808436 C 7137.975246 2249.810506 6610.732241 2232.832917 6458.984891 2224.778433 C 6307.316576 2216.802914 6139.683176 2073.085646 6003.900912 1761.64559 C 5868.118648 1450.205533 5664.524287 591.929171 5832.236723 456.187422 C 5999.870123 320.445673 6910.670361 396.410515 7133.865421 456.187422 C 7356.981446 516.043295 7453.246171 855.43715 7525.089057 1134.975131 C 7597.010978 1414.434148 7882.48568 2214.670845 7329.477239 2240.808436 Z M 7329.477239 2240.808436 " stroke="#8fb2ee" stroke-width="12.482" stroke-opacity="1" stroke-miterlimit="22.926001"/></g><path fill="#e6e8f6" d="M 356.714844 207.234375 C 350.082031 206.917969 331.8125 207.511719 326.550781 207.789062 C 321.296875 208.0625 315.484375 213.050781 310.777344 223.851562 C 306.074219 234.652344 299.15625 263.457031 304.96875 268.164062 C 310.777344 272.875 342.34375 270.242188 350.074219 268.164062 C 357.804688 266.089844 361.144531 254.316406 363.632812 244.625 C 366.125 234.929688 375.878906 208.140625 356.714844 207.234375 " fill-opacity="1" fill-rule="evenodd"/><g clip-path="url(#6e641cf238)"><path stroke-linecap="butt" transform="matrix(0.0494243, 0, 0, -0.0494678, 1.742127, 299.773613)" fill="none" stroke-linejoin="miter" d="M 4401.227602 268.644285 C 4485.004784 509.489156 4533.848462 656.049182 4533.848462 656.049182 L 4687.492654 656.049182 L 4485.004784 275.514286 Z M 4401.227602 268.644285 " stroke="#8fb2ee" stroke-width="12.482" stroke-opacity="1" stroke-miterlimit="22.926001"/></g><path fill="#c3714e" d="M 310.378906 140.480469 C 310.378906 144.164062 302.042969 158.453125 299.519531 157.878906 C 297 157.308594 299.929688 143.011719 299.929688 140.480469 C 299.929688 136.714844 299.929688 134.191406 299.929688 130.429688 C 303.414062 130.429688 306.894531 124.652344 310.378906 124.652344 C 310.378906 128.417969 310.378906 136.714844 310.378906 140.480469 " fill-opacity="1" fill-rule="evenodd"/><path fill="#2f2e6b" d="M 299.929688 132.957031 L 299.929688 130.429688 C 303.414062 130.429688 306.894531 124.652344 310.378906 124.652344 L 310.378906 128.863281 C 307.878906 135.652344 304.1875 136.179688 302.910156 135.886719 C 301.746094 135.617188 300.503906 134.390625 299.929688 132.957031 " fill-opacity="1" fill-rule="evenodd"/><path fill="#c3714e" d="M 306.527344 105.65625 C 304.003906 105.320312 296.398438 104.390625 294.902344 113.203125 C 293.402344 122.015625 294.269531 125.15625 294.742188 126.894531 C 295.289062 128.882812 296.421875 131.566406 299.089844 132.015625 C 304.835938 132.992188 307.46875 130.871094 309.253906 129.417969 C 310.652344 128.285156 313.042969 125.335938 314.273438 116.484375 C 315.511719 107.628906 309.03125 106.101562 306.527344 105.65625 " fill-opacity="1" fill-rule="evenodd"/><path fill="#2f2e6b" d="M 299.675781 107.515625 C 297.652344 107.015625 294.710938 111.832031 294.433594 116.613281 C 293.972656 108.46875 297.695312 102.941406 306.53125 104.195312 C 315.371094 105.449219 316.421875 113.578125 313.953125 120.144531 C 312.515625 116.113281 309.519531 116.292969 307.28125 115.09375 C 301.109375 111.796875 302.855469 107.890625 299.675781 107.515625 " fill-opacity="1" fill-rule="evenodd"/><path fill="#f66f82" d="M 306.894531 121.75 C 305.707031 121.921875 304.820312 122.625 304.917969 123.324219 C 305.019531 124.027344 306.0625 124.460938 307.25 124.292969 C 308.4375 124.125 309.320312 123.421875 309.226562 122.71875 C 309.125 122.019531 308.082031 121.585938 306.894531 121.75 " fill-opacity="1" fill-rule="evenodd"/><path fill="#2f2e6b" d="M 296.632812 116.910156 C 297.109375 116.988281 297.433594 117.527344 297.363281 118.113281 C 297.296875 118.699219 296.855469 119.109375 296.378906 119.035156 C 295.90625 118.957031 295.578125 118.417969 295.648438 117.832031 C 295.71875 117.246094 296.160156 116.832031 296.632812 116.910156 " fill-opacity="1" fill-rule="evenodd"/><path fill="#2f2e6b" d="M 304.808594 118.175781 C 304.335938 118.109375 303.859375 118.519531 303.75 119.101562 C 303.636719 119.679688 303.933594 120.207031 304.410156 120.277344 C 304.882812 120.347656 305.359375 119.933594 305.46875 119.355469 C 305.578125 118.773438 305.285156 118.246094 304.808594 118.175781 " fill-opacity="1" fill-rule="evenodd"/><path stroke-linecap="butt" transform="matrix(0.0494243, 0, 0, -0.0494678, 1.742127, 299.773613)" fill="none" stroke-linejoin="miter" d="M 6014.649391 3730.572154 C 6049.029648 3682.876973 5998.526236 3633.049723 5992.993781 3600.436958 C 5987.38229 3567.824194 6049.978069 3570.19316 6049.978069 3570.19316 " stroke="#2f2e6b" stroke-width="12.482" stroke-opacity="1" stroke-miterlimit="22.926001"/><path stroke-linecap="butt" transform="matrix(0.0494243, 0, 0, -0.0494678, 1.742127, 299.773613)" fill="none" stroke-linejoin="miter" d="M 6112.257708 3719.753876 C 6112.257708 3719.753876 6138.023142 3733.493879 6174.458311 3709.409392 " stroke="#2f2e6b" stroke-width="12.482" stroke-opacity="1" stroke-miterlimit="22.926001"/><path stroke-linecap="butt" transform="matrix(0.0494243, 0, 0, -0.0494678, 1.742127, 299.773613)" fill="none" stroke-linejoin="miter" d="M 6005.007112 3736.336638 C 6005.007112 3736.336638 5984.537028 3757.262504 5942.569403 3745.338709 " stroke="#2f2e6b" stroke-width="12.482" stroke-opacity="1" stroke-miterlimit="22.926001"/><path fill="#c3714e" d="M 312.398438 120.519531 C 312.714844 119.96875 313.058594 119.601562 313.808594 119.5625 C 314.5625 119.519531 315.828125 120.097656 315.503906 122.164062 C 315.183594 124.230469 313.183594 125.742188 312.132812 125.328125 C 311.082031 124.914062 312.207031 121.054688 312.398438 120.519531 " fill-opacity="1" fill-rule="evenodd"/><path fill="#f66f82" d="M 312.933594 125.0625 C 312.582031 125.007812 312.25 125.25 312.195312 125.601562 C 312.140625 125.957031 312.382812 126.289062 312.738281 126.34375 C 313.089844 126.398438 313.421875 126.15625 313.476562 125.800781 C 313.53125 125.449219 313.289062 125.117188 312.933594 125.0625 " fill-opacity="1" fill-rule="evenodd"/><path stroke-linecap="butt" transform="matrix(0.0494243, 0, 0, -0.0494678, 1.742127, 299.773613)" fill="none" stroke-linejoin="miter" d="M 6296.014255 3600.75282 C 6296.804606 3606.043511 6320.831268 3627.127308 6335.689862 3607.938684 " stroke="#2f2e6b" stroke-width="9.362001" stroke-opacity="1" stroke-miterlimit="22.926001"/><path stroke-linecap="round" transform="matrix(0.0494243, 0, 0, -0.0494678, 1.742127, 299.773613)" fill="none" stroke-linejoin="miter" d="M 5983.272467 3515.075218 C 5977.581941 3518.628667 5977.265801 3530.552463 5980.822379 3536.632809 C 5984.378958 3542.713155 5997.419745 3549.899018 6004.374831 3546.187638 C 6011.250883 3542.476258 6017.336584 3542.002465 6023.738425 3543.186948 C 6026.583687 3543.739706 6036.937282 3541.449706 6045.552105 3532.684532 C 6058.276752 3519.892116 6052.191051 3518.94453 6069.736838 3507.020734 C 6051.637806 3500.861423 6023.422284 3505.757286 6011.013778 3509.705562 " stroke="#2f2e6b" stroke-width="12.482" stroke-opacity="1" stroke-miterlimit="22.926001"/><path stroke-linecap="butt" transform="matrix(0.0494243, 0, 0, -0.0494678, 1.742127, 299.773613)" fill="none" stroke-linejoin="miter" d="M 5990.622729 3483.094178 C 6001.845709 3478.751074 6024.370705 3467.6959 6055.115349 3481.041074 " stroke="#2f2e6b" stroke-width="12.482" stroke-opacity="1" stroke-miterlimit="22.926001"/><path stroke-linecap="butt" transform="matrix(0.0494243, 0, 0, -0.0494678, 1.742127, 299.773613)" fill="none" stroke-linejoin="miter" d="M 5952.843963 2128.756346 L 5335.896175 1998.068391 C 5335.896175 1998.068391 5117.75937 1964.508041 5085.908235 1877.724921 C 5054.136135 1790.941802 5286.815394 1257.29274 5286.815394 1257.29274 " stroke="#2f2e6b" stroke-width="12.482" stroke-opacity="1" stroke-miterlimit="22.926001"/><g clip-path="url(#df2cc522fa)"><path stroke-linecap="butt" transform="matrix(0.0494243, 0, 0, -0.0494678, 1.742127, 299.773613)" fill="none" stroke-linejoin="miter" d="M 6652.857614 5368.159348 C 6724.305321 4893.576503 6585.914907 4792.263726 6369.595909 4834.115458 C 6153.276911 4875.96719 5544.469735 4924.136164 5694.004095 5394.45487 C 5843.459421 5864.773576 6141.342615 6145.101213 6308.659867 5922.102552 C 6475.977119 5699.182856 6533.909828 4928.479268 6284.633204 5012.577559 C 6035.35658 5096.67585 5583.750167 5274.348296 5968.888083 5425.567289 C 6354.025999 5576.786282 6940.466249 5061.299292 6805.948553 5215.676906 C 6631.518144 5416.091425 5726.803651 3199.923782 5804.416094 5392.3228 C 5812.556707 5621.085945 5947.311508 5653.461813 6217.453391 5708.105961 C 6487.595274 5762.671144 6885.062662 5610.662495 6812.587499 5424.856599 C 6740.112336 5239.129669 6593.107098 4695.925778 6266.376102 4739.909579 C 5939.645106 4783.89338 5644.053929 4491.878844 5730.281194 4851.645806 C 5816.587495 5211.412768 6182.836029 5395.481422 6137.707001 5618.638014 C 5966.358961 6466.806789 5257.098206 5482.264541 5792.797938 5328.834513 C 6143.239457 5228.469322 6366.750646 5090.279642 6378.210732 5214.887251 C 6389.749853 5339.415894 6843.095038 5455.495226 6654.517351 5723.030447 C 6466.018699 5990.565668 6177.382609 5785.571148 6177.382609 5785.571148 C 6177.382609 5785.571148 6047.211842 5037.925495 6134.545598 4847.776495 C 6221.879355 4657.548529 6405.793973 4352.425715 6499.529571 4493.616086 C 7038.390706 5305.38175 6950.661774 4166.777751 6371.33468 5127.867235 C 6003.505446 5738.191829 5822.119951 5970.508423 6123.006478 5933.473588 C 6423.893005 5896.438754 6687.395942 5741.903209 6445.62765 5607.503874 C 6203.859358 5473.025574 5909.927918 5535.882137 5769.245486 5385.215903 C 5628.484019 5234.549668 5716.291986 4799.923383 5812.951882 4684.949569 C 5909.453707 4569.975755 6004.374831 4161.250163 6182.361818 4429.496074 C 6360.506875 4697.82095 6792.670661 4797.396486 6651.276913 5013.288249 C 6509.883165 5229.258978 6852.579247 5408.510734 6713.635586 5551.596278 C 6574.691926 5694.681821 6497.000448 5776.805974 6280.602415 5879.777027 C 6064.125347 5982.74808 5780.231361 5754.221832 5613.54639 5671.623886 C 5446.861419 5589.02594 5285.076622 5421.855909 5492.069481 5304.750026 C 5699.06234 5187.644143 5835.555913 5117.443785 5847.569244 4997.574108 C 5859.503541 4877.783397 5649.033138 4346.187438 5624.690335 4769.205791 C 5600.426568 5192.145178 5860.293891 5660.331815 6090.997273 5486.923507 C 6321.621619 5313.436234 6505.457201 5069.432742 6327.233109 4862.227187 C 6149.009017 4655.100598 6111.941567 4415.282278 6111.941567 4415.282278 " stroke="#8fb0ec" stroke-width="12.482" stroke-opacity="1" stroke-miterlimit="22.926001"/></g><g clip-path="url(#62600e2c24)"><path stroke-linecap="butt" transform="matrix(0.0494243, 0, 0, -0.0494678, 1.742127, 299.773613)" fill="none" stroke-linejoin="miter" d="M 6124.271039 4643.808527 C 6516.996322 4692.688191 6547.899036 4847.065805 6440.806511 5039.346874 C 6333.63495 5231.627944 6086.334203 5789.835286 5773.039169 5535.092482 C 5459.823171 5280.270711 5345.222313 4932.980303 5575.84666 4830.798905 C 5806.471006 4728.617508 6424.28818 4862.464084 6273.015048 5075.355157 C 6121.820952 5288.167264 5828.126616 5667.596644 5843.775561 5270.084158 C 5859.34547 4872.650637 6123.164548 4596.824035 6295.302939 4537.678852 C 6467.441331 4478.533669 7028.748427 5382.294178 6864.276438 5453.600053 C 6699.883484 5524.984894 5997.103605 5467.576952 5812.793812 5432.200394 C 5628.563054 5396.823836 5659.544803 5234.707599 5710.364356 4968.435827 C 5761.262943 4702.24302 6016.230093 4367.19227 6135.335949 4480.428842 C 6254.520841 4593.586449 6625.116303 4863.806498 6478.269136 5158.979655 C 6331.342933 5454.152812 6455.90221 5802.153909 6206.625586 5633.562499 C 5957.348962 5465.050055 5940.909667 5077.171364 5752.252945 5064.931707 C 5035.167718 5018.342043 5554.191049 5922.65531 5858.080909 5458.574881 C 6056.775086 5155.031378 6241.084878 4979.491001 6148.455772 4938.349959 C 6055.74763 4897.129952 6122.137092 4444.341594 5849.545121 4555.604028 C 5576.953151 4666.787496 5636.466561 4987.071692 5636.466561 4987.071692 C 5636.466561 4987.071692 6171.454978 5291.404851 6349.125825 5256.107259 C 6526.796671 5220.7307 6826.892848 5123.050338 6749.754615 5000.811695 C 6305.972674 4298.176395 7158.840159 4658.338185 6213.501637 4965.987896 C 5613.23025 5161.427586 5370.434502 5274.506227 5502.897286 5001.838247 C 5635.439105 4729.170266 5846.225648 4520.22747 5867.090908 4779.392344 C 5888.035202 5038.557219 5737.868562 5298.353818 5806.154866 5466.866262 C 5874.520205 5635.457672 6241.954264 5659.305263 6364.379594 5596.922493 C 6486.883959 5534.618688 6836.693197 5545.594897 6690.004099 5313.357269 C 6543.394037 5081.198606 6615.236919 4652.178873 6398.996956 4731.93406 C 6182.677959 4811.610281 6161.812699 4446.947457 6002.9522 4542.100922 C 5844.012666 4637.254388 5753.517506 4690.003363 5599.003936 4867.438912 C 5444.490366 5044.874462 5523.762546 5366.501072 5530.322457 5542.752138 C 5536.882368 5719.003205 5610.701127 5911.284274 5772.960134 5746.009416 C 5935.219142 5580.734559 6036.779212 5470.182815 6133.834283 5488.186956 C 6230.968389 5506.270063 6570.661137 5833.029432 6234.208827 5752.563555 C 5897.677481 5672.097679 5624.216125 5314.462786 5838.243106 5140.817582 C 6052.428156 4967.251344 6305.182323 4854.725462 6404.371341 5072.196535 C 6503.560359 5289.588644 6676.726207 5382.846937 6676.726207 5382.846937 " stroke="#8fb0ec" stroke-width="12.482" stroke-opacity="1" stroke-miterlimit="22.926001"/></g><g clip-path="url(#701494d2f8)"><path stroke-linecap="butt" transform="matrix(0.0494243, 0, 0, -0.0494678, 1.742127, 299.773613)" fill="none" stroke-linejoin="miter" d="M 1475.981225 5239.682428 C 1472.187542 5266.767605 1448.002809 5285.719333 1421.763165 5282.007953 C 1395.602555 5278.375538 1377.424488 5253.501396 1381.139136 5226.495184 C 1388.726504 5172.403795 1437.254039 5134.579305 1489.654293 5141.844134 C 1541.975512 5149.187929 1578.331646 5198.857248 1570.744279 5252.948637 C 1559.521299 5334.046238 1486.65096 5390.822455 1408.090097 5379.846246 C 1329.608268 5368.949003 1275.074067 5294.326576 1286.376083 5213.30794 C 1301.471782 5105.125162 1398.526853 5029.397217 1503.248326 5044.005841 C 1607.969799 5058.614464 1680.682067 5158.111034 1665.586368 5266.135881 C 1646.776021 5401.245906 1525.378147 5496.004543 1394.417029 5477.763506 C 1263.534946 5459.443502 1172.723646 5335.151756 1191.533994 5200.041731 C 1214.21706 5037.846529 1359.878702 4924.215129 1516.921394 4946.088582 C 1674.043121 4968.040999 1783.032488 5117.285854 1760.428457 5279.40209 C 1734.030742 5468.524538 1564.026298 5601.186631 1380.743961 5575.601799 C 1197.540659 5550.095933 1070.373225 5375.976935 1096.77094 5186.854487 C 1126.883303 4970.646862 1321.151515 4819.033041 1530.594462 4848.250288 C 1740.037408 4877.467535 1885.382909 5076.460674 1855.270546 5292.589334 C 1821.285464 5535.882137 1602.753484 5706.36872 1367.149928 5673.440093 C 1131.546372 5640.590432 968.022804 5416.802115 1001.928851 5173.588278 C 1039.628581 4903.368229 1282.424329 4713.850953 1544.267529 4750.411994 C 1806.031695 4786.89407 1987.73333 5035.635494 1950.0336 5305.855543 C 1908.540186 5603.081804 1641.480671 5811.550808 1353.476861 5771.357352 C 1065.552086 5731.163896 865.672383 5457.627295 907.165797 5160.322069 C 952.373859 4836.089596 1243.697143 4608.668865 1557.861562 4652.494735 C 1872.105017 4696.320605 2090.004716 4994.731349 2044.796654 5319.042787 C 1995.794908 5670.360437 1680.207857 5916.732896 1339.882828 5869.195646 C 999.557799 5821.737361 763.321962 5498.452475 812.323708 5147.134825 C 865.119138 4768.810963 1205.048991 4503.565743 1571.53463 4554.656442 C 1938.020269 4605.826106 2192.355137 4953.906169 2139.638743 5332.308996 C 2083.04963 5737.63907 1718.935043 6021.836018 1326.20976 5967.112905 C 933.484477 5912.310826 660.971541 5539.277655 717.560654 5133.868616 C 777.864416 4701.53233 1166.321805 4398.383655 1585.207698 4456.818148 C 1774.02249 4483.11367 1936.834743 4578.425067 2053.095337 4714.79854 " stroke="#8fb0ec" stroke-width="12.482" stroke-opacity="1" stroke-miterlimit="22.926001"/></g><path stroke-linecap="butt" transform="matrix(0.0494243, 0, 0, -0.0494678, 1.742127, 299.773613)" fill="none" stroke-linejoin="miter" d="M 2031.992972 4690.871984 C 2226.340219 4920.029956 2917.897117 5449.493845 3760.885218 5475.473505 C 4603.715248 5501.532131 5289.265481 4951.932031 5913.247391 5007.602731 " stroke="#8fb0ec" stroke-width="12.482" stroke-opacity="1" stroke-miterlimit="22.926001"/></svg>