<svg xmlns="http://www.w3.org/2000/svg" xmlns:xlink="http://www.w3.org/1999/xlink" width="550" zoomAndPan="magnify" viewBox="0 0 412.5 305.25" height="407" preserveAspectRatio="xMidYMid meet" version="1.0"><defs><clipPath id="20fd44b0b7"><path d="M 145 179 L 411.746094 179 L 411.746094 293 L 145 293 Z M 145 179 " clip-rule="nonzero"/></clipPath><clipPath id="339fa1f728"><path d="M 0.257812 289 L 397 289 L 397 304.5 L 0.257812 304.5 Z M 0.257812 289 " clip-rule="nonzero"/></clipPath></defs><path fill="#3f131c" d="M 117.285156 102.183594 C 117.285156 102.183594 113.507812 94.199219 107.734375 86.53125 C 101.957031 78.863281 99.242188 73.992188 98.589844 66.792969 C 98.589844 66.792969 95.851562 69.988281 95.566406 71.234375 C 95.28125 72.480469 89.347656 62.386719 93.664062 50.128906 C 93.664062 50.128906 90.585938 52.402344 88.882812 55.863281 C 87.183594 59.324219 87.246094 47.363281 91.027344 42.007812 C 94.808594 36.65625 98.328125 32.074219 98.328125 32.074219 C 98.328125 32.074219 95.046875 33.132812 91.472656 33.25 C 87.898438 33.371094 94.667969 29.539062 102.605469 20.988281 C 110.546875 12.441406 122.1875 -0.355469 138.664062 5.578125 C 138.664062 5.578125 144.207031 -1.316406 155.816406 0.222656 C 168.550781 1.914062 173.125 1.117188 174.863281 0.820312 C 176.597656 0.523438 171.785156 3.960938 167.660156 5.773438 C 167.660156 5.773438 176.644531 6.722656 183.605469 11.898438 C 190.191406 16.792969 196.605469 19.285156 200.613281 20.570312 C 204.621094 21.855469 198.308594 24.433594 193.394531 27.683594 C 193.394531 27.683594 193.953125 40.171875 192.910156 42.707031 C 191.863281 45.242188 171.984375 72.046875 171.984375 72.046875 Z M 117.285156 102.183594 " fill-opacity="1" fill-rule="evenodd"/><path fill="#8a4430" d="M 116.128906 104.496094 C 116.128906 104.496094 87.089844 110.492188 66.390625 121.042969 C 45.691406 131.589844 35.933594 150.667969 27.613281 180.390625 C 19.296875 210.113281 16.710938 271.078125 18.601562 295.882812 L 180.851562 297.328125 C 180.851562 297.328125 180.8125 220.234375 193.3125 175.746094 C 193.3125 175.746094 219.277344 171.84375 248.730469 167.066406 C 278.183594 162.28125 287.257812 153.269531 291.058594 147.222656 C 294.859375 141.171875 290.65625 127.957031 288.832031 123.285156 C 287.007812 118.617188 262.195312 94.941406 257.902344 91.214844 C 257.902344 91.214844 258.457031 88.628906 258.023438 87.871094 C 257.589844 87.113281 243.386719 75.804688 240.914062 75.300781 C 238.4375 74.796875 232.800781 79.097656 232.800781 79.097656 C 232.800781 79.097656 212.1875 99.492188 211.972656 102.085938 C 211.765625 104.679688 217.902344 112.84375 217.902344 112.84375 C 217.902344 112.84375 189.824219 106.851562 171.511719 105.945312 C 153.203125 105.039062 116.128906 104.496094 116.128906 104.496094 Z M 116.128906 104.496094 " fill-opacity="1" fill-rule="evenodd"/><path fill="#3f131c" d="M 98.398438 242.871094 C 100.550781 242.375 104.238281 241.875 110.875 241.671875 C 111.1875 241.660156 111.445312 241.90625 111.453125 242.214844 C 111.464844 242.523438 111.21875 242.785156 110.910156 242.792969 C 99.027344 243.160156 96.878906 244.457031 95.84375 244.945312 C 95.488281 245.113281 95.222656 245.199219 94.871094 245.183594 C 93.867188 245.144531 92.839844 244.375 92.019531 243.539062 C 91.582031 243.09375 91.199219 242.640625 90.910156 242.324219 C 90.804688 242.207031 90.652344 242.0625 90.628906 242.039062 C 90.246094 241.871094 89.617188 241.941406 88.792969 242.117188 C 87.320312 242.429688 85.3125 243.15625 83.011719 244.105469 C 76.632812 246.730469 68.023438 251.054688 61.984375 253.265625 C 59.292969 254.25 57.089844 254.8125 55.777344 254.679688 C 55.46875 254.648438 55.242188 254.375 55.273438 254.066406 C 55.304688 253.757812 55.578125 253.53125 55.886719 253.5625 C 57.097656 253.683594 59.117188 253.121094 61.597656 252.210938 C 67.625 250.003906 76.21875 245.6875 82.582031 243.066406 C 85.371094 241.917969 87.742188 241.09375 89.308594 240.886719 C 90.101562 240.78125 90.71875 240.839844 91.128906 241.035156 C 91.242188 241.085938 91.40625 241.214844 91.597656 241.414062 C 91.890625 241.71875 92.316406 242.242188 92.820312 242.75 C 93.4375 243.378906 94.160156 244.03125 94.914062 244.0625 C 95.222656 244.074219 95.398438 243.90625 95.832031 243.707031 C 96.171875 243.550781 96.625 243.363281 97.292969 243.160156 C 96.878906 237.628906 94.875 210.953125 90.054688 176.9375 C 90.011719 176.632812 90.226562 176.347656 90.535156 176.304688 C 90.839844 176.261719 91.125 176.472656 91.167969 176.78125 C 95.933594 210.429688 97.949219 236.90625 98.398438 242.871094 Z M 117.378906 279.003906 C 113.753906 260.015625 125.476562 242.03125 129.632812 237.398438 C 129.699219 237.324219 129.78125 237.273438 129.867188 237.242188 C 129.90625 237.039062 130.0625 236.863281 130.28125 236.808594 C 142.132812 233.917969 148.296875 233.789062 152.226562 235.730469 C 154.902344 237.050781 156.582031 239.320312 158.273438 242.402344 C 158.421875 242.675781 158.324219 243.015625 158.050781 243.164062 C 157.777344 243.316406 157.4375 243.214844 157.289062 242.941406 C 155.722656 240.089844 154.203125 237.960938 151.730469 236.738281 C 147.941406 234.867188 142.007812 235.109375 130.601562 237.886719 C 130.582031 237.980469 130.539062 238.070312 130.46875 238.148438 C 129.402344 239.339844 127.816406 241.4375 126.125 244.21875 C 133.207031 242.621094 138.996094 242.285156 148.835938 242.65625 C 149.144531 242.667969 149.386719 242.929688 149.375 243.242188 C 149.363281 243.550781 149.105469 243.792969 148.792969 243.78125 C 138.832031 243.402344 133.078125 243.753906 125.839844 245.4375 C 125.699219 245.472656 125.554688 245.449219 125.4375 245.378906 C 123.96875 247.921875 122.464844 250.945312 121.183594 254.308594 C 135.566406 251.671875 138.871094 252 142.816406 251.6875 C 143.125 251.664062 143.394531 251.894531 143.421875 252.203125 C 143.445312 252.511719 143.214844 252.78125 142.90625 252.808594 C 138.921875 253.125 135.59375 252.78125 120.734375 255.535156 C 118.339844 262.28125 116.917969 270.277344 118.417969 278.480469 C 127.582031 277.101562 127.738281 277.203125 138.457031 275.097656 C 138.761719 275.039062 139.058594 275.238281 139.117188 275.542969 C 139.175781 275.847656 138.976562 276.140625 138.671875 276.203125 C 127.949219 278.304688 127.773438 278.207031 118.636719 279.582031 C 119.222656 282.320312 120.148438 285.074219 121.476562 287.8125 C 121.566406 287.695312 121.699219 287.613281 121.855469 287.597656 C 131.558594 286.453125 131.492188 286.558594 141.109375 284.582031 C 141.414062 284.519531 141.710938 284.714844 141.773438 285.019531 C 141.835938 285.324219 141.636719 285.621094 141.335938 285.683594 C 131.667969 287.667969 131.738281 287.566406 121.984375 288.714844 L 121.929688 288.714844 L 122.136719 289.109375 C 122.285156 289.386719 122.179688 289.726562 121.90625 289.871094 C 121.632812 290.015625 121.292969 289.914062 121.148438 289.640625 C 119.335938 286.257812 118.152344 282.832031 117.464844 279.433594 C 117.417969 279.367188 117.386719 279.289062 117.371094 279.203125 C 117.363281 279.136719 117.363281 279.070312 117.378906 279.003906 Z M 227.617188 118.300781 C 225.390625 118.769531 223.773438 118.671875 222.5625 118.285156 C 220.894531 117.75 219.941406 116.683594 219.257812 115.6875 C 218.855469 115.101562 218.558594 114.546875 218.234375 114.1875 C 218.027344 113.953125 218.046875 113.597656 218.277344 113.390625 C 218.511719 113.1875 218.867188 113.207031 219.074219 113.4375 C 219.421875 113.824219 219.75 114.417969 220.183594 115.050781 C 220.75 115.875 221.523438 116.773438 222.90625 117.214844 C 223.960938 117.550781 225.335938 117.628906 227.191406 117.265625 C 227.230469 117.167969 227.296875 117.082031 227.386719 117.015625 C 227.605469 116.863281 227.898438 116.890625 228.085938 117.0625 C 230.464844 116.457031 233.542969 115.1875 237.582031 112.9375 C 238.167969 112.605469 238.738281 112.273438 239.292969 111.941406 L 239.28125 111.929688 C 233.746094 106.59375 228.519531 100.566406 225.15625 96.859375 C 224.945312 96.632812 224.964844 96.277344 225.195312 96.066406 C 225.421875 95.859375 225.777344 95.875 225.984375 96.105469 C 229.339844 99.796875 234.542969 105.804688 240.0625 111.121094 C 240.132812 111.191406 240.183594 111.277344 240.210938 111.367188 C 242.957031 109.617188 245.242188 107.78125 247.152344 105.960938 C 239.367188 97.214844 239.355469 97.238281 232.230469 90.054688 C 232.011719 89.835938 232.015625 89.480469 232.234375 89.261719 C 232.457031 89.042969 232.8125 89.042969 233.03125 89.265625 C 240.164062 96.457031 240.183594 96.441406 247.953125 105.175781 C 250.871094 102.238281 252.835938 99.375 254.222656 96.984375 C 245.785156 88.511719 242.898438 85.585938 238.34375 82.210938 C 238.09375 82.027344 238.042969 81.675781 238.226562 81.425781 C 238.410156 81.175781 238.761719 81.125 239.011719 81.308594 C 243.5625 84.679688 246.464844 87.601562 254.792969 95.96875 C 255.804688 94.117188 256.453125 92.632812 256.957031 91.738281 C 257.109375 91.46875 257.453125 91.371094 257.722656 91.523438 C 257.992188 91.675781 258.089844 92.019531 257.933594 92.289062 C 256.152344 95.460938 252.511719 105.894531 238.128906 113.917969 C 234.269531 116.070312 231.226562 117.339844 228.816406 118.007812 C 230.25 119.765625 232.925781 122.429688 249.394531 144.039062 C 249.582031 144.285156 249.535156 144.640625 249.289062 144.828125 C 249.042969 145.015625 248.6875 144.96875 248.5 144.722656 C 240.726562 134.519531 236.023438 128.535156 233.074219 124.875 C 234.148438 132.054688 238.949219 141.578125 240.949219 145.980469 C 241.078125 146.261719 240.949219 146.597656 240.667969 146.722656 C 240.386719 146.851562 240.050781 146.726562 239.925781 146.445312 C 237.753906 141.660156 232.359375 130.921875 231.785156 123.507812 C 231.78125 123.441406 231.785156 123.375 231.804688 123.3125 C 229.105469 120.011719 228.308594 119.199219 227.617188 118.300781 Z M 106.203125 110.277344 C 106.03125 110.019531 106.105469 109.671875 106.363281 109.5 C 106.621094 109.328125 106.972656 109.402344 107.140625 109.660156 C 125.160156 137.011719 143.074219 137.539062 152.511719 134.503906 C 152.808594 134.410156 153.125 134.570312 153.21875 134.867188 C 153.3125 135.160156 153.152344 135.476562 152.855469 135.574219 C 143.171875 138.6875 124.691406 138.339844 106.203125 110.277344 Z M 58.363281 132.082031 C 58.0625 132.011719 57.875 131.707031 57.949219 131.40625 C 58.019531 131.105469 58.324219 130.917969 58.625 130.992188 C 62.667969 131.957031 72.511719 136.71875 78.074219 142.871094 C 84.246094 149.703125 87.933594 162.910156 88.453125 164.777344 C 88.535156 165.078125 88.359375 165.386719 88.0625 165.472656 C 87.761719 165.554688 87.453125 165.378906 87.367188 165.078125 C 86.859375 163.25 83.28125 150.308594 77.242188 143.625 C 71.839844 137.652344 62.289062 133.019531 58.363281 132.082031 Z M 113.054688 242.671875 C 112.742188 242.699219 112.46875 242.472656 112.441406 242.160156 C 112.417969 241.851562 112.644531 241.578125 112.953125 241.550781 C 113.234375 241.527344 113.15625 241.460938 125.800781 240.742188 C 126.109375 240.722656 126.375 240.960938 126.390625 241.269531 C 126.410156 241.582031 126.171875 241.847656 125.863281 241.863281 C 113.253906 242.578125 113.332031 242.648438 113.054688 242.671875 Z M 63.496094 282.050781 C 63.511719 282.042969 63.523438 282.035156 63.535156 282.027344 C 63.757812 281.84375 64.511719 280.804688 65.660156 279.207031 C 70.449219 272.535156 81.5625 256.355469 87.816406 249.203125 C 89.230469 247.585938 90.40625 246.421875 91.222656 245.898438 C 91.710938 245.585938 92.121094 245.484375 92.410156 245.527344 C 92.71875 245.566406 92.933594 245.851562 92.890625 246.160156 C 92.847656 246.46875 92.5625 246.679688 92.253906 246.636719 C 92.207031 246.632812 92.152344 246.667969 92.082031 246.699219 C 91.914062 246.78125 91.722656 246.90625 91.511719 247.070312 C 90.773438 247.640625 89.800781 248.636719 88.660156 249.941406 C 82.425781 257.074219 71.347656 273.207031 66.574219 279.863281 C 65.332031 281.59375 64.488281 282.699219 64.246094 282.898438 C 63.960938 283.128906 63.632812 283.234375 63.328125 283.195312 C 63.015625 283.15625 62.6875 282.976562 62.457031 282.503906 C 62.207031 282 62.050781 280.984375 62.269531 279.175781 C 62.566406 276.695312 63.535156 272.585938 65.792969 265.976562 C 65.894531 265.679688 66.210938 265.523438 66.503906 265.625 C 66.800781 265.726562 66.957031 266.042969 66.855469 266.339844 C 63.714844 275.550781 63.085938 279.769531 63.328125 281.5 C 63.359375 281.730469 63.457031 281.957031 63.496094 282.050781 Z M 142.375 279.457031 C 142.367188 279.148438 142.613281 278.886719 142.921875 278.878906 C 143.230469 278.871094 143.492188 279.117188 143.5 279.425781 C 143.613281 283.390625 144.742188 286.230469 146.027344 288.398438 C 146.1875 288.667969 146.097656 289.011719 145.832031 289.167969 C 145.566406 289.328125 145.21875 289.238281 145.0625 288.972656 C 143.699219 286.671875 142.496094 283.660156 142.375 279.457031 Z M 119.324219 266.777344 C 119.15625 267.035156 118.804688 267.109375 118.546875 266.9375 C 118.289062 266.765625 118.214844 266.417969 118.386719 266.160156 C 118.820312 265.496094 119.132812 265.21875 120.847656 264.980469 C 122.984375 264.679688 127.699219 264.34375 139.113281 262.664062 C 139.421875 262.617188 139.707031 262.828125 139.75 263.136719 C 139.796875 263.441406 139.585938 263.726562 139.277344 263.773438 C 127.855469 265.457031 123.140625 265.792969 121 266.09375 C 119.863281 266.25 119.613281 266.335938 119.324219 266.777344 Z M 27.503906 213.171875 C 27.433594 212.867188 27.617188 212.5625 27.917969 212.492188 C 28.21875 212.417969 28.523438 212.605469 28.597656 212.90625 C 34.8125 238.640625 38.808594 269.535156 49.398438 288.242188 C 49.550781 288.515625 49.457031 288.855469 49.1875 289.011719 C 48.917969 289.164062 48.574219 289.066406 48.421875 288.796875 C 37.789062 270.011719 33.746094 239.007812 27.503906 213.171875 Z M 155.167969 134.820312 C 154.894531 134.96875 154.550781 134.867188 154.40625 134.59375 C 154.257812 134.320312 154.359375 133.980469 154.632812 133.832031 C 154.632812 133.832031 160.304688 130.761719 162.339844 123.648438 C 162.425781 123.351562 162.738281 123.179688 163.035156 123.261719 C 163.332031 123.347656 163.503906 123.660156 163.421875 123.957031 C 161.246094 131.554688 155.167969 134.820312 155.167969 134.820312 Z M 193.84375 174.59375 C 193.746094 174.886719 193.425781 175.042969 193.132812 174.945312 C 192.839844 174.847656 192.679688 174.527344 192.777344 174.234375 C 200.234375 152.132812 200.382812 152.003906 205.046875 139.132812 C 205.152344 138.84375 205.472656 138.691406 205.765625 138.796875 C 206.058594 138.902344 206.210938 139.226562 206.101562 139.515625 C 201.445312 152.378906 201.296875 152.507812 193.84375 174.59375 Z M 197.9375 169.851562 C 197.765625 170.113281 197.417969 170.183594 197.15625 170.015625 C 196.898438 169.84375 196.828125 169.496094 196.996094 169.234375 C 202.085938 161.46875 203.605469 159.507812 214.75 145.992188 C 214.949219 145.75 215.300781 145.71875 215.539062 145.914062 C 215.78125 146.113281 215.816406 146.46875 215.617188 146.707031 C 204.519531 160.164062 203.003906 162.117188 197.9375 169.851562 Z M 217.972656 101.449219 C 217.796875 101.191406 217.859375 100.84375 218.113281 100.667969 C 218.367188 100.488281 218.71875 100.554688 218.894531 100.808594 C 220.511719 103.136719 223.578125 108.667969 230.042969 115.003906 C 230.265625 115.222656 230.269531 115.578125 230.050781 115.800781 C 229.835938 116.019531 229.480469 116.023438 229.257812 115.808594 C 222.714844 109.398438 219.605469 103.804688 217.972656 101.449219 Z M 217.972656 101.449219 " fill-opacity="1" fill-rule="evenodd"/><path fill="#f4a37b" d="M 151.625 242.863281 C 151.625 242.863281 160.453125 242.25 174.484375 240.460938 C 190.726562 238.390625 204.425781 236.496094 208.492188 236.9375 C 212.03125 237.324219 218.089844 240.023438 227.292969 247.417969 C 236.496094 254.8125 237.238281 256.230469 236.035156 257.660156 C 234.832031 259.089844 231.613281 261.578125 225.84375 257.335938 C 220.070312 253.09375 213.933594 249.09375 212.035156 248.675781 C 210.136719 248.257812 204.9375 248.800781 204.9375 248.800781 C 204.9375 248.800781 213.175781 251.167969 218.222656 255.917969 C 223.273438 260.664062 231.160156 269.40625 235.199219 274.800781 C 239.238281 280.195312 221.515625 281.925781 221.515625 281.925781 C 221.515625 281.925781 211.488281 270.929688 207.78125 268.859375 C 204.070312 266.789062 192.636719 266.578125 192.636719 266.578125 C 192.636719 266.578125 197.371094 274.632812 193.808594 279.554688 C 190.25 284.476562 150.625 278.078125 147.667969 278.390625 C 144.707031 278.703125 142.519531 279.109375 142.519531 279.109375 C 142.519531 279.109375 135 260.546875 151.625 242.863281 Z M 151.625 242.863281 " fill-opacity="1" fill-rule="evenodd"/><g clip-path="url(#20fd44b0b7)"><path fill="#ded4d3" d="M 366.636719 291.910156 C 366.636719 291.910156 412.050781 188.667969 411.726562 186 C 411.402344 183.328125 408.085938 180.816406 406.382812 180.238281 C 404.679688 179.65625 284.601562 179.261719 279.113281 179.464844 C 273.625 179.671875 271.269531 183.621094 268.179688 191.042969 C 265.089844 198.464844 234.867188 269.710938 232.480469 273.628906 C 230.09375 277.550781 229.714844 277.773438 220.328125 277.800781 C 210.941406 277.824219 154.078125 277.667969 148.796875 277.765625 C 143.515625 277.867188 145.089844 284.847656 150.835938 289.289062 C 156.585938 293.734375 366.636719 291.910156 366.636719 291.910156 Z M 366.636719 291.910156 " fill-opacity="1" fill-rule="evenodd"/></g><path fill="#9e7c7b" d="M 277.464844 185.054688 C 276.578125 185.644531 275.824219 186.507812 275.035156 187.753906 C 273.949219 189.476562 272.800781 191.96875 271.105469 195.566406 C 266.914062 204.480469 235.921875 279.003906 233.582031 282.238281 C 232.457031 283.792969 231.636719 285.023438 230.246094 285.941406 C 228.851562 286.863281 226.894531 287.460938 223.523438 287.808594 C 223.214844 287.839844 222.992188 288.117188 223.023438 288.425781 C 223.054688 288.734375 223.332031 288.957031 223.640625 288.925781 C 227.265625 288.554688 229.367188 287.871094 230.867188 286.878906 C 232.367188 285.886719 233.277344 284.578125 234.492188 282.898438 C 236.835938 279.65625 267.921875 204.976562 272.125 196.046875 C 273.789062 192.503906 274.917969 190.046875 275.984375 188.355469 C 277.484375 185.984375 278.847656 185.214844 281.570312 185.042969 C 286.460938 184.730469 409.359375 185.730469 409.359375 185.730469 C 409.667969 185.730469 409.921875 185.484375 409.925781 185.171875 C 409.925781 184.863281 409.675781 184.609375 409.367188 184.605469 C 409.367188 184.605469 286.394531 183.609375 281.5 183.921875 C 280.292969 184 279.316406 184.175781 278.472656 184.519531 L 275.898438 181.285156 C 275.707031 181.042969 275.351562 181.003906 275.109375 181.195312 C 274.867188 181.390625 274.828125 181.742188 275.019531 181.988281 Z M 277.464844 185.054688 " fill-opacity="1" fill-rule="evenodd"/><path fill="#9e7c7b" d="M 343.566406 240.191406 C 346.359375 234.4375 343.433594 225.980469 333.242188 225.160156 C 321.890625 224.25 312.835938 231.839844 311.359375 238.613281 C 309.890625 245.386719 314.257812 252.335938 324.847656 251.25 C 333.351562 250.378906 340.632812 246.230469 343.566406 240.191406 Z M 343.566406 240.191406 " fill-opacity="1" fill-rule="evenodd"/><g clip-path="url(#339fa1f728)"><path fill="#3f131c" d="M 128.203125 289.902344 L 392.261719 289.902344 C 394.589844 289.902344 396.472656 291.789062 396.472656 294.113281 L 396.472656 300.285156 C 396.472656 302.613281 394.589844 304.5 392.261719 304.5 L 4.488281 304.5 C 2.160156 304.5 0.273438 302.613281 0.273438 300.285156 L 0.273438 294.113281 C 0.273438 291.789062 2.160156 289.902344 4.488281 289.902344 L 50.152344 289.902344 C 50.152344 289.902344 50.691406 293.628906 64.859375 293.539062 C 77.996094 293.453125 118.996094 290.5625 128.203125 289.902344 Z M 128.203125 289.902344 " fill-opacity="1" fill-rule="evenodd"/></g><path fill="#f4a37b" d="M 189.835938 264.6875 C 189.835938 264.6875 198.410156 269.214844 201.550781 270.902344 C 204.691406 272.585938 208.394531 276.941406 210.808594 279.855469 C 213.65625 283.289062 210.257812 284.773438 207.039062 284.539062 C 203.820312 284.308594 201.710938 280.011719 197.933594 278.582031 C 195.5 277.65625 189.800781 277.859375 189.800781 277.859375 Z M 189.835938 264.6875 " fill-opacity="1" fill-rule="evenodd"/><path fill="#b64521" d="M 194.132812 266.191406 C 194.433594 266.261719 194.625 266.5625 194.554688 266.863281 C 194.484375 267.167969 194.183594 267.355469 193.882812 267.289062 C 190.835938 266.589844 190.882812 266.605469 187.851562 265.875 C 187.550781 265.804688 187.363281 265.5 187.4375 265.199219 C 187.507812 264.898438 187.8125 264.710938 188.113281 264.785156 C 191.140625 265.511719 191.09375 265.496094 194.132812 266.191406 Z M 229.355469 276.117188 C 229.582031 276.328125 229.59375 276.6875 229.378906 276.914062 C 229.167969 277.136719 228.8125 277.148438 228.589844 276.9375 C 222.554688 271.289062 218.121094 266.601562 214.757812 263.410156 C 212.578125 261.339844 210.871094 259.902344 209.464844 259.277344 C 205.507812 257.507812 200.085938 256.964844 192.542969 255.09375 C 192.242188 255.019531 192.058594 254.714844 192.132812 254.414062 C 192.207031 254.113281 192.511719 253.929688 192.8125 254.003906 C 200.441406 255.894531 205.921875 256.460938 209.925781 258.25 C 211.40625 258.914062 213.226562 260.40625 215.53125 262.59375 C 218.894531 265.785156 223.324219 270.46875 229.355469 276.117188 Z M 205.265625 247.992188 C 205.554688 248.097656 205.707031 248.421875 205.597656 248.710938 C 205.492188 249.003906 205.167969 249.152344 204.878906 249.046875 C 202.128906 248.03125 201.078125 247.742188 195.777344 246.632812 C 195.472656 246.566406 195.277344 246.269531 195.339844 245.964844 C 195.40625 245.664062 195.703125 245.46875 196.007812 245.53125 C 201.402344 246.664062 202.46875 246.960938 205.265625 247.992188 Z M 205.265625 247.992188 " fill-opacity="1" fill-rule="evenodd"/><path fill="#f4a37b" d="M 134.359375 128.480469 C 126.039062 124.726562 119.167969 116.5625 113.351562 107.945312 C 113.351562 107.945312 117.789062 101.011719 117.960938 89.722656 C 117.960938 89.722656 112.40625 91.289062 109.273438 83.808594 C 106.140625 76.332031 106.199219 67.417969 111.410156 64.886719 C 116.617188 62.355469 121.140625 66.328125 122.351562 70.59375 C 123.558594 74.863281 124.203125 69.523438 125.121094 62.355469 C 126.042969 55.1875 125.886719 54.753906 130.039062 49.976562 C 134.191406 45.199219 141.492188 36.285156 141.492188 36.285156 C 141.492188 36.285156 140.167969 44.183594 143.582031 48.945312 C 146.992188 53.707031 140.15625 44.9375 153.453125 34.699219 C 153.453125 34.699219 155.222656 42.785156 162.367188 48.132812 C 169.515625 53.480469 166.667969 50.441406 166.511719 42.535156 C 166.511719 42.535156 170.546875 49.796875 179.628906 54.578125 C 179.628906 54.578125 182.75 56.300781 180.25 48.714844 C 179.941406 47.789062 181.988281 49.152344 183.621094 50.351562 C 185.253906 45.371094 186.820312 41.910156 185.929688 41.050781 C 183.792969 38.980469 180.839844 40.3125 178 37.273438 C 175.160156 34.234375 177.796875 32.371094 181.027344 32.726562 C 184.257812 33.082031 191.199219 34.167969 191.199219 34.167969 C 191.199219 34.167969 189.761719 31.269531 188.691406 30.136719 C 187.621094 29.003906 183.078125 30.160156 179.84375 25.941406 C 176.609375 21.71875 179.722656 20.46875 183.265625 21.378906 C 186.804688 22.292969 192.089844 22.925781 194.53125 25.753906 C 196.972656 28.574219 200.070312 36.023438 201.996094 40.1875 C 203.921875 44.351562 208.023438 54.277344 209.808594 55.769531 C 211.59375 57.257812 238.367188 78.484375 238.367188 78.484375 C 229.242188 96.320312 214.324219 101.601562 214.324219 101.601562 C 211.621094 98.277344 197.480469 81.582031 193.429688 80.601562 C 192.488281 80.375 191.421875 80.070312 190.339844 79.738281 C 188.042969 79.035156 185.664062 78.199219 184.234375 77.683594 C 184.246094 90.316406 184.308594 94.390625 179.609375 102.617188 C 174.84375 110.957031 169.042969 119.097656 166.085938 120.902344 C 163.128906 122.707031 158.558594 122.601562 158.558594 122.601562 C 158.558594 122.601562 156.269531 125.5 155.3125 127.765625 C 155.3125 127.765625 150.609375 132.324219 139.785156 130.226562 C 137.914062 129.863281 136.101562 129.269531 134.359375 128.480469 Z M 134.359375 128.480469 " fill-opacity="1" fill-rule="evenodd"/><path fill="#ea8859" d="M 158.558594 122.601562 C 158.558594 122.601562 156.269531 125.5 155.3125 127.765625 C 155.3125 127.765625 150.609375 132.324219 139.785156 130.226562 C 137.914062 129.863281 136.101562 129.269531 134.359375 128.480469 C 129.640625 119.050781 132.230469 110.628906 132.230469 110.628906 C 132.230469 110.628906 137.574219 115.996094 143.066406 119.21875 C 148.554688 122.441406 158.558594 122.601562 158.558594 122.601562 Z M 184.234375 77.683594 C 184.234375 77.683594 184.046875 61.59375 184.90625 52.398438 C 185.769531 43.203125 192.824219 43.714844 194.046875 47.320312 C 195.269531 50.925781 195.164062 57.566406 197.355469 62.160156 C 199.207031 66.035156 197.207031 76.195312 190.339844 79.738281 C 188.042969 79.035156 185.664062 78.199219 184.234375 77.683594 Z M 184.234375 77.683594 " fill-opacity="1" fill-rule="evenodd"/><path fill="#3f131c" d="M 191.199219 34.167969 C 191.199219 34.167969 174.347656 28.707031 188.496094 31.410156 C 202.640625 34.117188 208.042969 28.558594 207.117188 31.253906 C 206.195312 33.945312 201.089844 38.191406 201.089844 38.191406 C 197.429688 35.671875 191.199219 34.167969 191.199219 34.167969 Z M 184.316406 40.0625 C 184.316406 40.0625 187.472656 41.214844 191.996094 43.09375 C 196.519531 44.976562 201.039062 45.386719 199.207031 46.226562 C 197.378906 47.070312 193.496094 48.921875 189.496094 48.117188 C 189.496094 48.117188 191.59375 51.917969 193.933594 55.015625 C 196.269531 58.113281 189.582031 57.378906 181.972656 51.507812 C 174.363281 45.632812 184.316406 40.0625 184.316406 40.0625 Z M 184.316406 40.0625 " fill-opacity="1" fill-rule="evenodd"/><path fill="#b64521" d="M 184.335938 55.042969 C 184.355469 54.734375 184.617188 54.496094 184.925781 54.511719 C 185.238281 54.527344 185.476562 54.792969 185.460938 55.101562 C 184.964844 64.601562 184.890625 65.8125 184.898438 77.179688 C 184.898438 77.488281 184.648438 77.742188 184.335938 77.742188 C 184.027344 77.742188 183.777344 77.488281 183.773438 77.179688 C 183.765625 65.78125 183.839844 64.570312 184.335938 55.042969 Z M 117.582031 72.617188 C 117.867188 72.738281 118 73.070312 117.875 73.355469 C 117.753906 73.640625 117.421875 73.773438 117.136719 73.648438 C 116.40625 73.335938 115.824219 73.304688 115.371094 73.53125 C 114.953125 73.742188 114.664062 74.152344 114.46875 74.660156 C 114.121094 75.550781 114.058594 76.734375 114.222656 77.878906 C 114.382812 79.027344 114.769531 80.140625 115.359375 80.898438 C 115.695312 81.324219 116.09375 81.636719 116.5625 81.714844 C 117.082031 81.804688 117.660156 81.605469 118.308594 81.082031 C 118.550781 80.886719 118.90625 80.925781 119.101562 81.167969 C 119.292969 81.410156 119.253906 81.761719 119.015625 81.957031 C 118.042969 82.738281 117.148438 82.953125 116.375 82.824219 C 115.644531 82.699219 114.996094 82.257812 114.476562 81.585938 C 113.78125 80.695312 113.300781 79.390625 113.109375 78.039062 C 112.917969 76.691406 113.011719 75.300781 113.421875 74.25 C 113.730469 73.460938 114.214844 72.851562 114.867188 72.527344 C 115.558594 72.179688 116.457031 72.136719 117.582031 72.617188 Z M 122.253906 96.0625 C 122.117188 95.785156 122.230469 95.449219 122.507812 95.308594 C 122.785156 95.171875 123.121094 95.289062 123.261719 95.566406 C 126.242188 101.597656 130.253906 108.308594 137.257812 114.597656 C 145.371094 121.886719 151.125 121.507812 157.714844 122.105469 C 158.023438 122.132812 158.25 122.40625 158.222656 122.714844 C 158.195312 123.023438 157.921875 123.25 157.613281 123.222656 C 150.808594 122.609375 144.882812 122.957031 136.507812 115.433594 C 129.378906 109.03125 125.289062 102.203125 122.253906 96.0625 Z M 122.253906 96.0625 " fill-opacity="1" fill-rule="evenodd"/><path fill="#3f131c" d="M 135.730469 57.285156 C 135.789062 56.441406 137.371094 56.582031 142.296875 55.234375 C 147.585938 53.789062 149.972656 52.222656 150.335938 52.804688 C 151.773438 55.121094 149.769531 57.007812 144.328125 57.832031 C 140.695312 58.378906 135.667969 58.132812 135.730469 57.285156 Z M 182.085938 54.714844 C 182.230469 55.496094 177.257812 56.25 173.589844 56.113281 C 168.09375 55.914062 165.910156 54.367188 167.105469 52.0625 C 167.40625 51.484375 169.941406 52.695312 175.347656 53.492188 C 180.382812 54.230469 181.941406 53.9375 182.085938 54.714844 Z M 182.085938 54.714844 " fill-opacity="1" fill-rule="evenodd"/><path fill="#3f131c" d="M 174.761719 68.175781 C 172.796875 68.078125 171.308594 65.972656 171.429688 63.46875 C 171.550781 60.964844 173.242188 59.015625 175.203125 59.109375 C 177.164062 59.207031 178.65625 61.3125 178.535156 63.816406 C 178.410156 66.320312 176.722656 68.269531 174.761719 68.175781 Z M 174.761719 68.175781 " fill-opacity="1" fill-rule="nonzero"/><path fill="#3f131c" d="M 144.710938 70.675781 C 142.558594 70.570312 140.921875 68.265625 141.058594 65.523438 C 141.191406 62.785156 143.042969 60.648438 145.195312 60.753906 C 147.34375 60.859375 148.980469 63.164062 148.847656 65.90625 C 148.710938 68.644531 146.859375 70.78125 144.710938 70.675781 Z M 144.710938 70.675781 " fill-opacity="1" fill-rule="nonzero"/><path fill="#ea8859" d="M 173.550781 69.878906 C 176.933594 69.613281 177.808594 69.183594 178.957031 68.675781 C 179.148438 68.59375 179.230469 68.371094 179.148438 68.183594 C 179.066406 67.992188 178.84375 67.90625 178.65625 67.992188 C 177.4375 68.527344 176.535156 68.964844 172.34375 69.210938 C 172.054688 69.230469 171.863281 69.273438 171.761719 69.320312 L 171.617188 69.410156 L 171.515625 69.539062 L 171.46875 69.695312 L 171.488281 69.859375 L 171.523438 69.953125 L 171.597656 70.046875 L 171.769531 70.179688 C 172.195312 70.417969 173.75 70.75 175.8125 70.804688 C 175.246094 71 174.710938 71.082031 173.679688 71.207031 C 173.476562 71.234375 173.332031 71.421875 173.355469 71.625 C 173.378906 71.832031 173.566406 71.976562 173.773438 71.953125 C 175.738281 71.710938 175.992188 71.617188 177.828125 70.742188 C 177.988281 70.664062 178.074219 70.484375 178.03125 70.3125 C 177.984375 70.136719 177.824219 70.019531 177.644531 70.03125 C 176.019531 70.125 174.570312 70.03125 173.550781 69.878906 Z M 143.007812 72.121094 C 146.980469 72.144531 148.035156 71.769531 149.417969 71.339844 C 149.625 71.273438 149.742188 71.050781 149.679688 70.839844 C 149.613281 70.628906 149.390625 70.511719 149.179688 70.578125 C 147.703125 71.039062 146.605469 71.425781 141.648438 71.304688 C 141.316406 71.296875 141.097656 71.324219 140.980469 71.363281 L 140.8125 71.441406 L 140.691406 71.566406 L 140.644531 71.644531 L 140.617188 71.742188 L 140.625 71.929688 L 140.664062 72.035156 L 140.738281 72.140625 C 140.78125 72.183594 140.839844 72.238281 140.925781 72.289062 C 141.402344 72.582031 143.195312 73.066406 145.609375 73.3125 C 144.925781 73.460938 144.292969 73.503906 143.070312 73.542969 C 142.851562 73.550781 142.679688 73.734375 142.6875 73.953125 C 142.691406 74.171875 142.878906 74.34375 143.097656 74.335938 C 145.410156 74.261719 145.71875 74.183594 147.929688 73.425781 C 148.113281 73.363281 148.222656 73.179688 148.195312 72.992188 C 148.164062 72.800781 148.003906 72.65625 147.8125 72.652344 C 145.894531 72.605469 144.199219 72.375 143.007812 72.121094 Z M 177.085938 72.410156 C 177.28125 72.335938 177.378906 72.121094 177.308594 71.929688 C 177.234375 71.734375 177.019531 71.636719 176.824219 71.707031 C 175.53125 72.191406 175.53125 72.09375 174.199219 72.324219 C 173.996094 72.359375 173.859375 72.554688 173.894531 72.757812 C 173.933594 72.960938 174.125 73.097656 174.328125 73.0625 C 175.726562 72.820312 175.730469 72.917969 177.085938 72.410156 Z M 146.9375 75.125 C 147.152344 75.074219 147.28125 74.855469 147.226562 74.640625 C 147.175781 74.429688 146.957031 74.300781 146.746094 74.355469 C 145.179688 74.75 145.1875 74.644531 143.597656 74.773438 C 143.378906 74.789062 143.21875 74.984375 143.234375 75.203125 C 143.25 75.417969 143.445312 75.585938 143.660156 75.566406 C 145.316406 75.433594 145.3125 75.539062 146.9375 75.125 Z M 146.9375 75.125 " fill-opacity="1" fill-rule="evenodd"/><path fill="#3f131c" d="M 160.257812 68.566406 C 160.296875 68.257812 160.578125 68.039062 160.886719 68.074219 C 161.191406 68.113281 161.414062 68.394531 161.375 68.699219 C 161.175781 70.367188 161.109375 73.671875 161.839844 76.804688 C 162.3125 78.84375 163.121094 80.8125 164.476562 82.179688 C 167.261719 84.992188 168.128906 87.175781 167.554688 89.089844 C 166.992188 90.957031 164.972656 92.652344 161.679688 94.515625 C 161.410156 94.667969 161.066406 94.574219 160.914062 94.304688 C 160.761719 94.035156 160.855469 93.691406 161.125 93.539062 C 162.648438 92.675781 163.886719 91.867188 164.808594 91.054688 C 165.664062 90.304688 166.238281 89.5625 166.476562 88.765625 C 166.707031 88 166.613281 87.195312 166.203125 86.296875 C 165.746094 85.304688 164.910156 84.214844 163.679688 82.972656 C 162.183594 81.460938 161.265625 79.304688 160.746094 77.0625 C 159.976562 73.777344 160.050781 70.3125 160.257812 68.566406 Z M 160.257812 68.566406 " fill-opacity="1" fill-rule="evenodd"/><path fill="#fbf3e1" d="M 154.625 103.996094 C 151.085938 104.425781 150.109375 103.851562 151.1875 102.304688 C 152.261719 100.761719 153.722656 99.921875 157.035156 99.667969 C 160.34375 99.414062 165.628906 98.65625 167.074219 99.445312 C 168.523438 100.234375 167.515625 102.878906 165.484375 103.503906 C 163.449219 104.121094 162.378906 103.054688 154.625 103.996094 Z M 154.625 103.996094 " fill-opacity="1" fill-rule="evenodd"/></svg>